<?xml version="1.0" encoding="utf-8"?>
<!-- Generator: Adobe Illustrator 28.2.0, SVG Export Plug-In . SVG Version: 6.00 Build 0)  -->
<svg version="1.1" id="_レイヤー_2" xmlns="http://www.w3.org/2000/svg" xmlns:xlink="http://www.w3.org/1999/xlink" x="0px"
	 y="0px" viewBox="0 0 495.6 664.1" style="enable-background:new 0 0 495.6 664.1;" xml:space="preserve">
<style type="text/css">
	.st0{fill:#C8102E;}
</style>
<path class="st0" d="M449.1,242.2L75.9,63.7c-3.5-1.7-7.2-2.5-11-2.5c-5.1,0-10.3,1.6-14.6,4.6C42.8,71.1,38.7,80,39.6,89.2
	l40.5,411.5c1,10.2,8.1,18.8,17.9,21.9c2.5,0.8,5,1.1,7.5,1.1c7.4,0,14.7-3.3,19.6-9.2l54.8-66c9.7-11.7,24-18.4,39.2-18.4
	c0.9,0,1.8,0,2.8,0.1c16,0.9,30.9,9.4,39.7,22.7l88,132.7c3.8,5.7,9.7,9.6,16.4,10.9c1.6,0.3,3.2,0.5,4.9,0.5
	c5.1,0,10.1-1.5,14.4-4.5l45.9-31.5c5.7-3.9,9.6-10,10.7-16.9c1.1-6.9-0.6-13.9-4.8-19.4l-95.6-127.5c-9.6-12.9-12.7-29.7-8.1-45.1
	c4.6-15.4,16.4-27.9,31.5-33.3l82-29.7c9.6-3.5,16.3-12.4,16.8-22.7C464,256.2,458.4,246.6,449.1,242.2L449.1,242.2z M94.2,370.4
	L70.7,131.9c-0.5-4.9,3.1-9.3,8-9.8c4.9-0.5,9.3,3.1,9.8,8l23.5,238.5c0.5,4.9-3.1,9.3-8,9.8c-0.3,0-0.6,0-0.9,0
	C98.5,378.4,94.6,375,94.2,370.4L94.2,370.4z M110.4,444.7c-0.3,0-0.6,0-0.9,0c-4.5,0-8.4-3.4-8.9-8l-2.8-28.2
	c-0.5-4.9,3.1-9.3,8-9.8c4.9-0.5,9.3,3.1,9.8,8l2.8,28.2C118.9,439.9,115.4,444.2,110.4,444.7L110.4,444.7z M387.5,522.9
	c7.4-7.4,19.3-7.4,26.7,0s7.4,19.3,0,26.7s-19.3,7.4-26.7,0S380.1,530.3,387.5,522.9z"/>
</svg>
