<?xml version="1.0" encoding="UTF-8"?>
<svg id="_レイヤー_2" data-name=" レイヤー 2" xmlns="http://www.w3.org/2000/svg" viewBox="0 0 495.6 664.1">
  <defs>
    <style>
      .cls-1 {
        fill: #fff;
        stroke-width: 0px;
      }
    </style>
  </defs>
  <path class="cls-1" d="M449.1,242.2L75.9,63.7c-3.5-1.7-7.2-2.5-11-2.5-5.1,0-10.3,1.6-14.6,4.6-7.5,5.3-11.6,14.2-10.7,23.4l40.5,411.5c1,10.2,8.1,18.8,17.9,21.9,2.5.8,5,1.1,7.5,1.1,7.4,0,14.7-3.3,19.6-9.2l54.8-66c9.7-11.7,24-18.4,39.2-18.4.9,0,1.8,0,2.8.1,16,.9,30.9,9.4,39.7,22.7l88,132.7c3.8,5.7,9.7,9.6,16.4,10.9,1.6.3,3.2.5,4.9.5,5.1,0,10.1-1.5,14.4-4.5l45.9-31.5c5.7-3.9,9.6-10,10.7-16.9s-.6-13.9-4.8-19.4l-95.6-127.5c-9.6-12.9-12.7-29.7-8.1-45.1s16.4-27.9,31.5-33.3l82-29.7c9.6-3.5,16.3-12.4,16.8-22.7.3-10.2-5.3-19.8-14.6-24.2h0ZM94.2,370.4l-23.5-238.5c-.5-4.9,3.1-9.3,8-9.8s9.3,3.1,9.8,8l23.5,238.5c.5,4.9-3.1,9.3-8,9.8h-.9c-4.6,0-8.5-3.4-8.9-8h0ZM110.4,444.7h-.9c-4.5,0-8.4-3.4-8.9-8l-2.8-28.2c-.5-4.9,3.1-9.3,8-9.8s9.3,3.1,9.8,8l2.8,28.2c.5,5-3,9.3-8,9.8h0ZM387.5,522.9c7.4-7.4,19.3-7.4,26.7,0s7.4,19.3,0,26.7-19.3,7.4-26.7,0-7.4-19.3,0-26.7Z"/>
</svg>