<?xml version="1.0" encoding="UTF-8"?><svg id="_イヤー_2" xmlns="http://www.w3.org/2000/svg" viewBox="0 0 855.45 357.68"><defs><style>.cls-1{fill:#db0000;}</style></defs><g id="logo"><path class="cls-1" d="M385.49,98.29c-6.42-4.87-15.72-.67-19.46,5.65-4.19,7.09-10.41,13.35-15.18,16.25-6.03,3.66-10.89,5.88-16.3,7.68v-21.63c0-3.09-2.51-5.6-5.6-5.6h0c-2.45,0-4.62,1.6-5.34,3.94-.48,1.58-1.03,3.36-1.65,5.17-1.8,4.81-11,23.5-30.59,25.99-6.06,.56-11.76,.51-21.56-.25-3.81-.3-4.5,4.75-.83,5.46,9.24,1.78,13.65,2.56,20.47,3.15,2.11,.18,5.27,.44,6.74,.46v95.99c0,4.87,.78,9.03,2.35,12.5,1.57,3.46,3.65,6.35,6.25,8.66,2.6,2.31,5.57,4,8.91,5.07,3.34,1.07,6.83,1.61,10.46,1.61,6.43,0,11.77-.91,16.02-2.72,4.25-1.81,7.77-4.06,10.58-6.74,2.8-2.68,5.05-5.59,6.74-8.72,1.28-2.37,2.43-4.6,3.45-6.68,.53-1.08,.06-2.38-1.04-2.88-1.01-.45-2.2-.06-2.73,.91-.87,1.6-1.86,3.04-2.96,4.32-1.24,1.57-2.72,2.97-4.45,4.21-1.73,1.24-3.71,1.86-5.94,1.86-2.89,0-5.16-.84-6.81-2.54-1.65-1.69-2.47-4.72-2.47-9.09v-100.61c6.75-1.13,13.49-2.43,20.25-3.87,14.68-3.14,24.8-4.79,32.34-13.86,5.82-7.01,6.52-17.47-1.65-23.66Zm-.02,14.51c-.72,3.29-3.08,5.57-5.28,5.09-2.2-.48-3.39-3.54-2.67-6.83,.72-3.29,3.08-5.57,5.28-5.09,2.2,.48,3.39,3.54,2.67,6.83ZM129.66,15.82C125.13,6.07,115.82,1.43,108.59,.29c-6.99-1.11-27.76-.09-46.98,23.66-11.39,14.08-14.19,42.18-14.19,61.35v59.32c-6.88,7.98-23.44,16.81-35.49,21.8-3.66,1.52-7.35,3.04-11.37,3.43-.19,.02-.57,.03-.57,.35s1.44,.33,2.94,.21c15.66-1.25,29.89-8.23,44.39-14.85l.1-.05v100c0,.93,.14,2.15,.43,3.66,.29,1.51,1.03,2.99,2.23,4.42,1.19,1.43,3.03,2.67,5.51,3.72,2.47,1.05,5.9,1.58,10.27,1.58s7.86-.48,10.46-1.45c2.6-.97,4.58-2.12,5.94-3.47,1.36-1.34,2.23-2.78,2.6-4.29s.56-2.82,.56-3.91v-123.39l.03-.06c3.67-2.56,10.53-9.76,14.98-14.84,15.7-17.95,26.89-38.15,31.63-61.76,4.96-24.7,.24-34.22-2.39-39.89Zm-38.54,87.59c-.7,1.46-4.31,8.65-5.71,9v-18.04c0-16.22,.03-27.12,.03-45.61,0-5.64-.03-5.25-.03-12.85,0-1.96,1.1-3.09,3.14-1.12,2.52,2.43,8.8,10.42,8.8,29.96,0,14-2.33,30.57-6.24,38.65ZM112.35,19.65c-1.93-2.91-1.65-6.5,.63-8.02,2.28-1.51,5.7-.38,7.63,2.53,1.93,2.91,1.65,6.5-.63,8.02-2.28,1.51-5.7,.38-7.63-2.53Zm9.87,45.25c-1.23,3.6-2.75,7.11-4.7,10.36-.22,.36-.69,.48-1.06,.26-.33-.2-.46-.62-.31-.96,1.43-3.36,2.42-6.88,3.11-10.45,1.91-10.47,1.91-21.68-.76-31.94-1.25-5.24,6.53-6.87,7.47-1.54,1.38,11.62-.16,23.24-3.75,34.27Zm730.13,109.44c-2.06-7.92-5.01-14.56-8.85-19.92-3.84-5.36-8.44-9.4-13.8-12.13-5.36-2.72-11.34-4.08-17.94-4.08-3.22,0-6.33,.37-9.34,1.11-3.01,.74-5.86,1.79-8.54,3.16-2.68,1.36-5.16,2.99-7.42,4.89-2.27,1.9-4.23,4-5.88,6.31-.17-1.24-.7-2.74-1.61-4.52-.91-1.77-2.25-3.46-4.02-5.07-1.77-1.61-3.98-2.99-6.62-4.15-2.64-1.15-5.82-1.73-9.53-1.73-3.46,0-6.76,.37-9.9,1.11-3.14,.74-6.06,1.69-8.78,2.85-2.72,1.16-5.26,2.5-7.61,4.02-1.67,1.09-3.23,2.18-4.67,3.29-.94,.72-1.1,2.07-.34,2.97,.68,.81,1.87,.96,2.75,.37,.59-.4,1.16-.73,1.7-1,.99-.5,2.18-.74,3.59-.74,2.64,0,4.52,.89,5.63,2.66,1.11,1.77,1.67,3.86,1.67,6.25v156.9c0,.91,.16,2.08,.49,3.53,.33,1.44,1.15,2.89,2.48,4.33,1.32,1.44,3.24,2.68,5.75,3.71,2.52,1.03,5.96,1.55,10.33,1.55s7.81-.49,10.33-1.48c2.52-.99,4.41-2.16,5.69-3.53,1.28-1.36,2.08-2.78,2.41-4.27,.33-1.48,.49-2.77,.49-3.84v-60.38c.99,.91,2.31,2.04,3.96,3.4,1.65,1.36,3.71,2.7,6.19,4.02,2.48,1.32,5.42,2.43,8.85,3.34,3.42,.91,7.4,1.36,11.94,1.36,5.45,0,10.78-1.22,16.02-3.65,5.24-2.43,9.9-6.33,13.98-11.69,4.08-5.36,7.38-12.27,9.9-20.73,2.52-8.45,3.77-18.7,3.77-30.75,0-10.39-1.03-19.55-3.09-27.47Zm-36.87,47.7c-.74,6.31-1.94,11.84-3.59,16.58-1.65,4.74-3.75,8.5-6.31,11.26-2.56,2.77-5.65,4.15-9.28,4.15-2.8,0-5.18-.68-7.11-2.04-1.94-1.36-3.53-2.91-4.76-4.64-1.24-1.73-2.15-3.42-2.72-5.07-.58-1.65-.87-2.8-.87-3.46v-68.92c0-1.73,.45-3.55,1.36-5.44,.91-1.9,2.08-3.61,3.53-5.13,1.44-1.53,3.07-2.8,4.89-3.84,1.81-1.03,3.63-1.55,5.44-1.55,3.13,0,5.96,.85,8.48,2.54,2.52,1.69,4.68,4.41,6.5,8.17,1.81,3.75,3.2,8.68,4.15,14.79,.95,6.11,1.42,13.57,1.42,22.4,0,7.18-.37,13.92-1.11,20.23Zm22.69-62.08c-.34-.8,.84-1.42,1.29-.65,3.53,5.8,6.11,12.21,7.72,18.83,1.24,4.99,1.97,10.12,2.36,15.24,.17,3.04,.86,8.25-3.61,8.02-1.63-.17-2.85-1.51-2.92-3.09-.02-6.47,.71-12.94-.14-19.4-.68-6.43-2.24-12.81-4.7-18.94Zm11.8,51.58c-.4,2.56-2.35,4.39-4.35,4.08-2.01-.31-3.31-2.64-2.92-5.2,.4-2.56,2.35-4.39,4.35-4.08,2.01,.31,3.31,2.64,2.92,5.2Zm-639.8-1.69c0,2.64,.39,5.51,1.18,8.6,.78,3.09,1.92,6.21,3.4,9.34,1.48,3.14,3.32,6.12,5.51,8.97,2.18,2.85,4.7,5.38,7.55,7.61,2.85,2.23,6,4,9.47,5.32,3.46,1.32,7.26,1.98,11.38,1.98,2.89,0,5.57-.33,8.04-.99,2.47-.66,4.78-1.57,6.93-2.72,2.14-1.15,4.21-2.49,6.19-4.02,1.43-1.11,2.87-2.27,4.3-3.48,.93-.79,2.31-.76,3.19,.08h0c.89,.85,.99,2.23,.22,3.19-1.67,2.08-3.66,4.32-5.98,6.7-2.97,3.05-6.56,5.92-10.77,8.6-4.21,2.68-9.12,4.91-14.72,6.68-5.61,1.77-12,2.66-19.18,2.66s-14.17-1.3-20.97-3.9c-6.81-2.6-12.85-6.5-18.13-11.69-5.28-5.2-9.51-11.67-12.68-19.43-3.18-7.75-4.76-16.83-4.76-27.22,0-7.51,.95-14.39,2.85-20.66,1.9-6.27,4.47-11.92,7.73-16.95,3.26-5.03,7.05-9.44,11.38-13.24,4.33-3.79,8.89-6.95,13.67-9.47,4.78-2.52,9.67-4.41,14.66-5.69,4.99-1.28,9.79-1.92,14.42-1.92,6.1,0,11.42,.66,15.96,1.98,4.54,1.32,8.31,3.09,11.32,5.32,3.01,2.23,5.26,4.81,6.74,7.73,1.48,2.93,2.23,6,2.23,9.22,0,3.88-1.11,7.36-3.34,10.46-2.23,3.09-5.2,5.8-8.91,8.1l-48.88,28.83Zm24.87-25.12c1.07-.66,1.96-1.3,2.66-1.92,.7-.62,1.26-1.36,1.67-2.23,.41-.87,.72-1.94,.93-3.22,.2-1.28,.31-2.87,.31-4.76,0-2.06-.23-4.35-.68-6.87-.45-2.52-1.22-4.89-2.29-7.11-1.07-2.23-2.43-4.08-4.08-5.57-1.65-1.48-3.63-2.23-5.94-2.23-2.97,0-5.51,.89-7.61,2.66-2.1,1.77-3.84,4.06-5.2,6.87-1.36,2.81-2.43,6-3.22,9.59-.78,3.59-1.38,7.2-1.79,10.83-.41,3.63-.66,7.11-.74,10.46-.08,3.34-.12,6.17-.12,8.48l26.11-14.97Zm215.73-3.71c-2.56,0-4.7-.39-6.43-1.18-1.73-.78-3.14-1.83-4.21-3.16-1.07-1.32-1.86-2.78-2.35-4.39-.5-1.61-.74-3.28-.74-5.01,0-2.23,.14-4.37,.43-6.43,.29-2.06,.33-3.92,.12-5.57-.21-1.65-.85-2.97-1.92-3.96-1.07-.99-2.97-1.48-5.69-1.48-2.89,0-5.94,.83-9.16,2.47-3.22,1.65-6.15,4.25-8.79,7.8-2.64,3.55-4.83,8.1-6.56,13.67-1.73,5.57-2.6,12.27-2.6,20.11,0,8.66,.8,16.56,2.41,23.7,1.61,7.14,4.02,13.22,7.24,18.25,3.22,5.03,7.22,8.93,12,11.69,4.78,2.76,10.39,4.15,16.83,4.15,2.89,0,5.63-.33,8.23-.99,2.6-.66,5.05-1.57,7.36-2.72,2.31-1.15,4.52-2.49,6.62-4.02,1.53-1.11,3.03-2.27,4.49-3.49,.94-.78,2.3-.75,3.18,.09h0c.89,.85,.99,2.24,.22,3.2-1.67,2.08-3.66,4.32-5.98,6.7-2.97,3.05-6.56,5.92-10.77,8.6-4.21,2.68-9.12,4.91-14.72,6.68-5.61,1.77-12,2.66-19.18,2.66s-14.17-1.38-20.97-4.15c-6.81-2.76-12.85-6.78-18.13-12.06-5.28-5.28-9.51-11.69-12.68-19.24-3.18-7.55-4.76-16.15-4.76-25.8,0-7.51,.95-14.42,2.85-20.73,1.9-6.31,4.47-12.02,7.73-17.14,3.26-5.11,7.05-9.61,11.38-13.49,4.33-3.88,8.89-7.11,13.67-9.71,4.78-2.6,9.67-4.56,14.66-5.88,4.99-1.32,9.79-1.98,14.42-1.98,6.1,0,11.42,.7,15.96,2.1,4.54,1.4,8.31,3.26,11.32,5.57,3.01,2.31,5.26,4.97,6.74,7.98,1.48,3.01,2.23,6.12,2.23,9.34,0,2.39-.31,4.68-.93,6.87-.62,2.19-1.53,4.08-2.72,5.69-1.2,1.61-2.7,2.89-4.52,3.84-1.81,.95-3.92,1.42-6.31,1.42Zm68.27-19.3c3.05-4.37,6.52-8.29,10.39-11.75,1.57-1.48,3.32-2.93,5.26-4.33,1.94-1.4,4-2.66,6.19-3.77,2.18-1.11,4.5-2,6.93-2.66,2.43-.66,4.93-.99,7.49-.99,5.53,0,10.48,1.07,14.85,3.22,4.37,2.15,8.04,5.73,11.01,10.77,2.97,5.03,5.24,11.69,6.81,19.98,1.57,8.29,2.35,18.58,2.35,30.87s-1.07,22.36-3.22,31.18c-2.15,8.83-4.95,16.33-8.41,22.52-3.46,6.19-7.38,11.24-11.75,15.16-4.37,3.92-8.78,6.99-13.24,9.22-4.45,2.23-8.74,3.77-12.87,4.64-3.03,.64-5.74,1.06-8.15,1.27-1.43,.13-2.73-.83-3.07-2.23h0c-.36-1.48,.48-2.95,1.91-3.47,2.68-.98,5.13-2.41,7.33-4.3,2.89-2.48,5.32-6.54,7.3-12.19,1.98-5.65,3.48-13.26,4.52-22.83,1.03-9.57,1.55-21.9,1.55-37,0-10.39-.48-18.7-1.42-24.93-.95-6.23-2.19-10.97-3.71-14.23-1.53-3.26-3.26-5.4-5.2-6.43-1.94-1.03-3.9-1.55-5.88-1.55-2.39,0-4.5,.64-6.31,1.92-1.82,1.28-3.4,2.74-4.76,4.39-1.36,1.65-2.52,3.3-3.46,4.95-.95,1.65-1.75,2.89-2.41,3.71v82.66c0,1.07-.17,2.37-.5,3.9-.33,1.53-1.13,2.97-2.41,4.33-1.28,1.36-3.18,2.52-5.69,3.46-2.52,.95-5.96,1.42-10.33,1.42s-7.84-.52-10.39-1.55c-2.56-1.03-4.48-2.25-5.75-3.65-1.28-1.4-2.08-2.85-2.41-4.33-.33-1.48-.49-2.68-.49-3.59V95.89c0-2.39-.56-4.47-1.67-6.25-1.11-1.77-2.99-2.66-5.63-2.66-1.4,0-2.62,.23-3.65,.68-.61,.27-1.24,.61-1.89,1.04-.83,.54-1.94,.35-2.57-.41h0c-.72-.87-.57-2.16,.32-2.85,1.46-1.13,3.02-2.24,4.69-3.35,2.31-1.53,4.85-2.87,7.61-4.02,2.76-1.15,5.71-2.1,8.85-2.85,3.13-.74,6.43-1.11,9.9-1.11,5.36,0,9.53,.72,12.5,2.17,2.97,1.44,5.15,3.22,6.56,5.32,1.4,2.1,2.25,4.33,2.54,6.68,.29,2.35,.43,4.44,.43,6.25v67.19Zm196.32,83.4c0,.74,.04,1.55,.12,2.41,.08,.87,.29,1.69,.62,2.48,.33,.78,.82,1.42,1.48,1.92,.66,.49,1.61,.74,2.85,.74,1.57,0,2.97-.56,4.21-1.67,.73-.66,1.44-1.33,2.11-2,.78-.78,2.03-.81,2.85-.08h0c.84,.73,.97,1.98,.29,2.86-1,1.3-2.16,2.69-3.46,4.17-1.86,2.1-4.1,4.1-6.74,6-2.64,1.9-5.65,3.49-9.03,4.76-3.38,1.28-7.22,1.92-11.51,1.92-3.63,0-6.79-.48-9.47-1.42-2.68-.95-4.95-2.23-6.81-3.84-1.86-1.61-3.24-3.5-4.15-5.69-.91-2.18-1.36-4.52-1.36-6.99v-5.57c-4.13,4.45-8.46,8.37-12.99,11.75-1.98,1.48-4.08,2.93-6.31,4.33-2.23,1.4-4.54,2.66-6.93,3.77-2.39,1.11-4.87,2-7.42,2.66-2.56,.66-5.12,.99-7.67,.99-4.95,0-9.18-.89-12.68-2.66-3.51-1.77-6.33-4.1-8.48-6.99-2.15-2.89-3.71-6.14-4.7-9.78-.99-3.63-1.48-7.26-1.48-10.89v-76.59c0-.74-.04-1.55-.12-2.41-.08-.87-.29-1.69-.62-2.48-.33-.78-.83-1.42-1.48-1.92-.66-.49-1.61-.74-2.85-.74-1.48,0-2.87,.56-4.15,1.67-.74,.64-1.42,1.29-2.06,1.94-.78,.8-2.04,.87-2.89,.15h0c-.87-.73-1.02-2.02-.32-2.92,.99-1.28,2.13-2.66,3.43-4.12,1.86-2.1,4.1-4.1,6.74-6,2.64-1.9,5.67-3.48,9.09-4.76,3.42-1.28,7.24-1.92,11.45-1.92,3.63,0,6.81,.48,9.53,1.42,2.72,.95,4.99,2.23,6.81,3.84,1.81,1.61,3.17,3.51,4.08,5.69,.91,2.19,1.36,4.52,1.36,6.99v82.66c0,1.16,.19,2.33,.56,3.53,.37,1.2,.91,2.29,1.61,3.28,.7,.99,1.59,1.79,2.66,2.41,1.07,.62,2.35,.93,3.84,.93,2.39,0,4.78-.62,7.18-1.86,2.39-1.24,4.58-2.7,6.56-4.39,1.98-1.69,3.69-3.36,5.14-5.01,1.44-1.65,2.49-2.89,3.16-3.71v-72.26c0-.74-.04-1.55-.12-2.41-.08-.87-.29-1.69-.62-2.48-.33-.78-.83-1.42-1.48-1.92-.66-.49-1.61-.74-2.85-.74-1.48,0-2.87,.56-4.15,1.67-.74,.64-1.42,1.29-2.06,1.94-.78,.8-2.04,.87-2.89,.15h0c-.87-.73-1.02-2.02-.32-2.92,.99-1.28,2.13-2.66,3.43-4.12,1.86-2.1,4.1-4.1,6.74-6,2.64-1.9,5.67-3.48,9.09-4.76,3.42-1.28,7.24-1.92,11.45-1.92,3.63,0,6.81,.48,9.53,1.42,2.72,.95,4.99,2.23,6.81,3.84,1.81,1.61,3.18,3.51,4.08,5.69,.91,2.19,1.36,4.52,1.36,6.99v88.97ZM129.32,198.12c.16,.34,.54,1.11,.78,1.55,18.18,33.25,41.53,62.2,71.51,85.56,25.91,20.18,54.72,34.42,86.78,41.93,18.14,4.25,36.51,5.97,55.13,5.34,39.19-1.34,75.32-12.83,108.96-32.68,1.25-.74,2.51-1.46,3.8-2.13,.38-.2,.77,.06,.95,.43,.1,.2,.13,.56,.01,.71-.41,.51-.86,1-1.36,1.42-8.43,7.24-43,38.37-98.55,51.42-21,4.94-46,7.03-64.58,5.53-46.55-3.75-87.45-21.33-123.59-50.52-17.6-14.21-32.97-30.58-46.25-48.87-6.29-8.66-12.85-17.13-18.41-26.3-5.71-9.42-11.25-21.74-12.28-30.24-.35-2.86-.39-5.09-.38-6.54,0-.88,.68-1.6,1.56-1.65,3.1-.16,7.32-.84,9.72-2.08,1.42-.73,2.81-1.48,4.03-2.48,8.66-7.09,15.13-15.77,19.17-26.21,.85-2.2,1.44-4.5,1.63-6.85,.51-6.26-1.86-8.76-6.84-7.61-2.9,.67-5.36,2.19-7.72,3.91-3.99,2.9-7.4,6.39-10.46,10.24-.58,.72-1.09,1.5-1.7,2.19-.6,.68-1.4,.83-2.11,.25-.67-.55-.84-1.32-.41-2.14,.06-.12,.14-.22,.21-.34,9.13-15.14,21.98-25.54,39.08-30.33,6.04-1.69,12.24-1.95,18.42-.28,8.47,2.3,14.32,9.45,14.44,18.58,.1,7.43-2.19,14.06-6,20.22-7.62,12.32-18.3,21.04-31.73,26.42-1.09,.44-3.13,1.25-3.8,1.53Z"/></g></svg>