<svg width="778" height="110" viewBox="0 0 778 110" fill="none" xmlns="http://www.w3.org/2000/svg">
<path d="M18.316 37V36.48C19.2867 36.3413 19.9627 36.064 20.344 35.648C20.7253 35.1973 20.916 34.504 20.916 33.568C20.916 32.7013 20.2747 30.3613 18.992 26.548L13.324 9.544L15.508 1.224H16.132L24.504 25.976C25.4053 28.6107 26.1507 30.6387 26.74 32.06C27.3293 33.4813 27.884 34.5387 28.404 35.232C28.924 35.8907 29.5133 36.3067 30.172 36.48V37H18.316ZM0.584 37V36.48C1.312 36.272 1.95333 35.8733 2.508 35.284C3.09733 34.66 3.72133 33.6547 4.38 32.268C5.03867 30.8813 5.81867 28.9053 6.72 26.34L15.508 1.224H16.132L14.312 9.44C12.3707 14.7093 10.9667 18.6787 10.1 21.348C9.23333 24.0173 8.66133 26.0453 8.384 27.432C8.14133 28.8187 8.02 30.2573 8.02 31.748C8.02 33.412 8.332 34.608 8.956 35.336C9.61467 36.0293 10.36 36.4107 11.192 36.48V37H0.584ZM8.228 25.872V24.104H22.216V25.872H8.228ZM39.5738 37.728C37.0085 37.728 34.9978 36.7227 33.5418 34.712C32.1205 32.7013 31.4098 29.8413 31.4098 26.132C31.4098 23.0813 31.7565 20.3947 32.4498 18.072C33.1778 15.7147 34.2872 13.86 35.7778 12.508C37.3032 11.156 39.2098 10.48 41.4978 10.48C42.4685 10.48 43.4218 10.7053 44.3578 11.156C45.2938 11.6067 45.9352 12.3 46.2818 13.236L45.9178 13.964C45.5712 13.2707 44.9818 12.7507 44.1498 12.404C43.3525 12.0227 42.6245 11.832 41.9658 11.832C40.1285 11.832 38.8285 12.8547 38.0658 14.9C37.3378 16.9453 36.9738 20.0653 36.9738 24.26C36.9738 27.9 37.3552 30.656 38.1178 32.528C38.8805 34.4 40.1632 35.336 41.9658 35.336C42.9018 35.336 43.7165 35.0067 44.4098 34.348C45.1378 33.6893 45.5018 32.6667 45.5018 31.28L45.9178 33.568C45.3978 34.92 44.5658 35.96 43.4218 36.688C42.3125 37.3813 41.0298 37.728 39.5738 37.728ZM46.1778 37.728L45.6578 33.256L45.5018 33.152V8.192C45.5018 6.56267 45.4152 5.36667 45.2418 4.604C45.1032 3.80667 44.8432 3.252 44.4618 2.94C44.0805 2.628 43.4912 2.42 42.6938 2.316V1.796C43.8378 1.796 45.1205 1.64 46.5418 1.328C47.9978 1.016 49.2632 0.617331 50.3378 0.131997H50.5978V29.46C50.5978 31.124 50.6672 32.3893 50.8058 33.256C50.9792 34.088 51.2565 34.712 51.6378 35.128C52.0192 35.5093 52.6085 35.752 53.4058 35.856V36.376C52.2618 36.376 51.0312 36.5147 49.7138 36.792C48.3965 37.0347 47.3738 37.3467 46.6458 37.728H46.1778ZM63.9488 37.728C61.3835 37.728 59.3728 36.7227 57.9168 34.712C56.4955 32.7013 55.7848 29.8413 55.7848 26.132C55.7848 23.0813 56.1315 20.3947 56.8248 18.072C57.5528 15.7147 58.6622 13.86 60.1528 12.508C61.6782 11.156 63.5848 10.48 65.8728 10.48C66.8435 10.48 67.7968 10.7053 68.7328 11.156C69.6688 11.6067 70.3102 12.3 70.6568 13.236L70.2928 13.964C69.9462 13.2707 69.3568 12.7507 68.5248 12.404C67.7275 12.0227 66.9995 11.832 66.3408 11.832C64.5035 11.832 63.2035 12.8547 62.4408 14.9C61.7128 16.9453 61.3488 20.0653 61.3488 24.26C61.3488 27.9 61.7302 30.656 62.4928 32.528C63.2555 34.4 64.5382 35.336 66.3408 35.336C67.2768 35.336 68.0915 35.0067 68.7848 34.348C69.5128 33.6893 69.8768 32.6667 69.8768 31.28L70.2928 33.568C69.7728 34.92 68.9408 35.96 67.7968 36.688C66.6875 37.3813 65.4048 37.728 63.9488 37.728ZM70.5528 37.728L70.0328 33.256L69.8768 33.152V8.192C69.8768 6.56267 69.7902 5.36667 69.6168 4.604C69.4782 3.80667 69.2182 3.252 68.8368 2.94C68.4555 2.628 67.8662 2.42 67.0688 2.316V1.796C68.2128 1.796 69.4955 1.64 70.9168 1.328C72.3728 1.016 73.6382 0.617331 74.7128 0.131997H74.9728V29.46C74.9728 31.124 75.0422 32.3893 75.1808 33.256C75.3542 34.088 75.6315 34.712 76.0128 35.128C76.3942 35.5093 76.9835 35.752 77.7808 35.856V36.376C76.6368 36.376 75.4062 36.5147 74.0888 36.792C72.7715 37.0347 71.7488 37.3467 71.0208 37.728H70.5528ZM106.74 37.728C105.422 37.728 104.521 37.3293 104.036 36.532C103.585 35.7 103.29 34.7293 103.152 33.62C103.117 33.4467 103.082 33.2733 103.048 33.1L102.788 32.996V20.1C102.788 17.8467 102.424 16.2347 101.696 15.264C100.968 14.2933 99.6849 13.808 97.8476 13.808C96.5996 13.808 95.4729 14.0507 94.4676 14.536C93.4969 14.9867 92.5609 15.6973 91.6596 16.668L91.1396 16.304C91.3129 15.368 91.8156 14.4493 92.6476 13.548C93.4796 12.6467 94.5196 11.9187 95.7676 11.364C97.0156 10.7747 98.3156 10.48 99.6676 10.48C102.337 10.48 104.365 11.156 105.752 12.508C107.173 13.8253 107.884 15.9227 107.884 18.8V31.852C107.884 32.6147 108.005 33.2213 108.248 33.672C108.49 34.1227 108.993 34.348 109.756 34.348C110.102 34.348 110.345 34.3307 110.484 34.296L110.64 34.504C110.432 35.6133 109.981 36.428 109.288 36.948C108.629 37.468 107.78 37.728 106.74 37.728ZM96.5996 37.728C94.6236 37.728 93.0982 37.052 92.0236 35.7C90.9489 34.348 90.4116 32.6667 90.4116 30.656C90.4116 28.7493 90.7756 27.1893 91.5036 25.976C92.2662 24.7627 93.5489 23.7573 95.3516 22.96C97.1889 22.128 99.7716 21.4 103.1 20.776V21.608C101.124 22.0587 99.6156 22.6307 98.5756 23.324C97.5702 24.0173 96.8769 24.8667 96.4956 25.872C96.1489 26.8773 95.9756 28.16 95.9756 29.72C95.9756 31.5573 96.3049 32.9613 96.9636 33.932C97.6569 34.868 98.4716 35.336 99.4076 35.336C100.482 35.336 101.314 34.972 101.904 34.244C102.493 33.516 102.788 32.2853 102.788 30.552L103.516 32.892C102.892 34.66 101.938 35.908 100.656 36.636C99.4076 37.364 98.0556 37.728 96.5996 37.728ZM133.402 37.728C132.605 37.728 131.894 37.624 131.27 37.416C130.646 37.2427 129.97 37 129.242 36.688C128.341 36.3067 127.699 36.116 127.318 36.116C126.555 36.116 125.897 36.4453 125.342 37.104H124.926V8.192C124.926 6.56267 124.839 5.36667 124.666 4.604C124.527 3.80667 124.267 3.252 123.886 2.94C123.505 2.628 122.915 2.42 122.118 2.316V1.796C123.262 1.796 124.545 1.64 125.966 1.328C127.422 1.016 128.687 0.617331 129.762 0.131997H130.022V30.604C130.022 32.7533 130.317 34.244 130.906 35.076C131.53 35.8733 132.431 36.272 133.61 36.272C134.511 36.272 135.326 35.8733 136.054 35.076C136.782 34.2787 137.371 32.9787 137.822 31.176C138.273 29.3387 138.498 26.9467 138.498 24C138.498 20.9147 138.307 18.5227 137.926 16.824C137.579 15.0907 137.059 13.912 136.366 13.288C135.707 12.6293 134.875 12.3 133.87 12.3C133.107 12.3 132.362 12.4907 131.634 12.872C130.906 13.2187 130.317 13.6693 129.866 14.224L129.814 12.976C130.542 12.2133 131.409 11.6067 132.414 11.156C133.454 10.7053 134.494 10.48 135.534 10.48C138.55 10.48 140.734 11.572 142.086 13.756C143.473 15.9053 144.166 18.904 144.166 22.752C144.166 27.0853 143.282 30.6733 141.514 33.516C139.746 36.324 137.042 37.728 133.402 37.728ZM152.272 9.076C151.267 9.076 150.418 8.74667 149.724 8.088C149.066 7.42933 148.736 6.59733 148.736 5.592C148.736 4.62133 149.066 3.80667 149.724 3.148C150.418 2.45467 151.267 2.108 152.272 2.108C153.243 2.108 154.075 2.45467 154.768 3.148C155.462 3.80667 155.808 4.62133 155.808 5.592C155.808 6.56266 155.462 7.39466 154.768 8.088C154.11 8.74667 153.278 9.076 152.272 9.076ZM154.976 28.94C154.976 31.0547 155.063 32.632 155.236 33.672C155.41 34.6773 155.687 35.3707 156.068 35.752C156.45 36.0987 157.022 36.3413 157.784 36.48V37H147.072V36.48C147.835 36.3413 148.407 36.0987 148.788 35.752C149.17 35.3707 149.447 34.6773 149.62 33.672C149.794 32.632 149.88 31.0547 149.88 28.94V19.164C149.88 17.5 149.794 16.252 149.62 15.42C149.482 14.5533 149.222 13.9293 148.84 13.548C148.459 13.132 147.87 12.872 147.072 12.768V12.248C148.147 12.248 149.464 12.0573 151.024 11.676C152.584 11.2947 153.815 10.896 154.716 10.48H154.976V28.94ZM159.665 12.82C162.473 10.6013 164.744 7.932 166.477 4.812H166.997V11.52H173.705V12.144L172.145 13.34H166.997V30.864C166.997 32.2507 167.205 33.2387 167.621 33.828C168.037 34.3827 168.748 34.66 169.753 34.66C170.481 34.66 171.122 34.4693 171.677 34.088C172.232 33.7067 172.682 33.0827 173.029 32.216L173.445 32.32C173.237 34.192 172.596 35.5613 171.521 36.428C170.446 37.2947 169.164 37.728 167.673 37.728C165.766 37.728 164.328 37.208 163.357 36.168C162.386 35.0933 161.901 33.3947 161.901 31.072V13.34H159.665V12.82ZM196.798 37.728C192.95 37.728 190.211 36.48 188.582 33.984C186.987 31.488 186.19 28.2813 186.19 24.364C186.19 20.308 187.039 16.98 188.738 14.38C190.471 11.78 193.158 10.48 196.798 10.48C200.611 10.48 203.333 11.7453 204.962 14.276C206.591 16.8067 207.406 20.0307 207.406 23.948C207.406 27.9693 206.539 31.28 204.806 33.88C203.107 36.4453 200.438 37.728 196.798 37.728ZM196.902 36.532C197.977 36.532 198.861 36.168 199.554 35.44C200.282 34.712 200.837 33.4467 201.218 31.644C201.634 29.8067 201.842 27.3107 201.842 24.156C201.842 20.0653 201.409 16.9627 200.542 14.848C199.675 12.7333 198.393 11.676 196.694 11.676C195.619 11.676 194.718 12.0573 193.99 12.82C193.297 13.548 192.742 14.8307 192.326 16.668C191.945 18.5053 191.754 21.0013 191.754 24.156C191.754 28.2467 192.187 31.332 193.054 33.412C193.921 35.492 195.203 36.532 196.902 36.532ZM210.244 37V36.48C210.938 36.3413 211.492 36.0467 211.908 35.596C212.324 35.1453 212.619 34.4867 212.792 33.62C212.966 32.7533 213.052 31.5747 213.052 30.084V14.172H210.504V13.652C211.51 13.132 212.203 12.56 212.584 11.936C212.966 11.2773 213.33 10.1333 213.676 8.504C214.266 5.8 215.08 3.80666 216.12 2.524C217.195 1.24133 218.928 0.599998 221.32 0.599998C222.811 0.599998 224.146 0.981331 225.324 1.744C226.503 2.472 227.092 3.58133 227.092 5.072L227.04 5.592L223.348 6.788V6.008C223.279 4.448 223.054 3.32133 222.672 2.628C222.326 1.93466 221.719 1.588 220.852 1.588C219.882 1.588 219.188 2.07333 218.772 3.044C218.356 3.98 218.148 5.45333 218.148 7.464V12.352H225.22V12.872L223.608 14.172H218.148V30.084C218.148 31.644 218.235 32.84 218.408 33.672C218.582 34.504 218.894 35.1453 219.344 35.596C219.83 36.0467 220.54 36.3413 221.476 36.48V37H210.244ZM235.381 37V36.48C236.074 36.3413 236.629 36.0467 237.045 35.596C237.461 35.1453 237.756 34.4867 237.929 33.62C238.102 32.7533 238.189 31.5747 238.189 30.084V14.172H235.641V13.652C236.334 13.2707 236.854 12.8893 237.201 12.508C237.582 12.1267 237.877 11.6587 238.085 11.104C238.293 10.5147 238.536 9.648 238.813 8.504C239.402 5.83467 240.442 3.85867 241.933 2.576C243.424 1.29333 245.486 0.651997 248.121 0.651997C250.478 0.651997 252.281 1.13733 253.529 2.108C254.777 3.044 255.401 4.22266 255.401 5.644L251.085 6.84C251.085 5.14133 250.808 3.84133 250.253 2.94C249.733 2.03866 248.797 1.588 247.445 1.588C245.781 1.588 244.672 2.07333 244.117 3.044C243.562 4.01467 243.285 5.488 243.285 7.464V12.352H249.525V13.028L247.861 14.172H243.285V30.084C243.285 31.6787 243.337 32.892 243.441 33.724C243.58 34.556 243.822 35.1973 244.169 35.648C244.516 36.064 245.07 36.3413 245.833 36.48V37H235.381ZM248.277 37V36.48C249.04 36.3413 249.612 36.0987 249.993 35.752C250.374 35.3707 250.652 34.6773 250.825 33.672C250.998 32.632 251.085 31.0547 251.085 28.94V1.484C252.888 1.20666 254.5 0.755998 255.921 0.131997H256.181V28.94C256.181 31.0547 256.268 32.632 256.441 33.672C256.649 34.6773 256.944 35.3533 257.325 35.7C257.741 36.0467 258.348 36.3067 259.145 36.48V37H248.277ZM277.771 37.728C276.453 37.728 275.552 37.3293 275.067 36.532C274.616 35.7 274.321 34.7293 274.183 33.62C274.148 33.4467 274.113 33.2733 274.079 33.1L273.819 32.996V20.1C273.819 17.8467 273.455 16.2347 272.727 15.264C271.999 14.2933 270.716 13.808 268.879 13.808C267.631 13.808 266.504 14.0507 265.499 14.536C264.528 14.9867 263.592 15.6973 262.691 16.668L262.171 16.304C262.344 15.368 262.847 14.4493 263.679 13.548C264.511 12.6467 265.551 11.9187 266.799 11.364C268.047 10.7747 269.347 10.48 270.699 10.48C273.368 10.48 275.396 11.156 276.783 12.508C278.204 13.8253 278.915 15.9227 278.915 18.8V31.852C278.915 32.6147 279.036 33.2213 279.279 33.672C279.521 34.1227 280.024 34.348 280.787 34.348C281.133 34.348 281.376 34.3307 281.515 34.296L281.671 34.504C281.463 35.6133 281.012 36.428 280.319 36.948C279.66 37.468 278.811 37.728 277.771 37.728ZM267.631 37.728C265.655 37.728 264.129 37.052 263.055 35.7C261.98 34.348 261.443 32.6667 261.443 30.656C261.443 28.7493 261.807 27.1893 262.535 25.976C263.297 24.7627 264.58 23.7573 266.383 22.96C268.22 22.128 270.803 21.4 274.131 20.776V21.608C272.155 22.0587 270.647 22.6307 269.607 23.324C268.601 24.0173 267.908 24.8667 267.527 25.872C267.18 26.8773 267.007 28.16 267.007 29.72C267.007 31.5573 267.336 32.9613 267.995 33.932C268.688 34.868 269.503 35.336 270.439 35.336C271.513 35.336 272.345 34.972 272.935 34.244C273.524 33.516 273.819 32.2853 273.819 30.552L274.547 32.892C273.923 34.66 272.969 35.908 271.687 36.636C270.439 37.364 269.087 37.728 267.631 37.728ZM292.171 37.988L287.075 23.532C286 20.4467 285.099 17.968 284.371 16.096C283.677 14.1893 283.175 13.0107 282.863 12.56C282.551 12.0747 282.187 11.7973 281.771 11.728V11.208H291.547V11.728C290.992 11.728 290.593 11.832 290.351 12.04C290.108 12.248 289.987 12.612 289.987 13.132C289.987 13.6173 290.108 14.432 290.351 15.576C290.593 16.6853 291.131 18.8173 291.963 21.972L294.511 31.592L292.743 37.988H292.171ZM292.899 34.452L293.939 31.384C295.013 28.7493 295.915 26.0627 296.643 23.324C297.405 20.5507 297.787 18.176 297.787 16.2C297.787 15.056 297.665 14.12 297.423 13.392C297.18 12.6293 296.781 12.0747 296.227 11.728V11.208H303.715V11.728C303.368 11.7973 303.004 12.1093 302.623 12.664C302.276 13.184 301.773 14.2587 301.115 15.888C300.456 17.4827 299.468 20.0307 298.151 23.532L292.743 37.988L292.899 34.452ZM315.321 37.728C311.473 37.728 308.735 36.48 307.105 33.984C305.511 31.488 304.713 28.2813 304.713 24.364C304.713 20.308 305.563 16.98 307.261 14.38C308.995 11.78 311.681 10.48 315.321 10.48C319.135 10.48 321.856 11.7453 323.485 14.276C325.115 16.8067 325.929 20.0307 325.929 23.948C325.929 27.9693 325.063 31.28 323.329 33.88C321.631 36.4453 318.961 37.728 315.321 37.728ZM315.425 36.532C316.5 36.532 317.384 36.168 318.077 35.44C318.805 34.712 319.36 33.4467 319.741 31.644C320.157 29.8067 320.365 27.3107 320.365 24.156C320.365 20.0653 319.932 16.9627 319.065 14.848C318.199 12.7333 316.916 11.676 315.217 11.676C314.143 11.676 313.241 12.0573 312.513 12.82C311.82 13.548 311.265 14.8307 310.849 16.668C310.468 18.5053 310.277 21.0013 310.277 24.156C310.277 28.2467 310.711 31.332 311.577 33.412C312.444 35.492 313.727 36.532 315.425 36.532ZM328.768 37V36.48C329.461 36.3413 330.016 36.0467 330.432 35.596C330.848 35.1453 331.142 34.4867 331.316 33.62C331.489 32.7533 331.576 31.5747 331.576 30.084V19.164C331.576 17.5 331.489 16.252 331.316 15.42C331.177 14.5533 330.917 13.9293 330.536 13.548C330.154 13.132 329.565 12.872 328.768 12.768V12.248C329.842 12.248 331.142 12.0573 332.668 11.676C334.193 11.2947 335.406 10.896 336.308 10.48H336.568L336.464 15.16L336.672 15.784V30.084C336.672 31.644 336.758 32.84 336.932 33.672C337.105 34.504 337.417 35.1453 337.868 35.596C338.353 36.0467 339.064 36.3413 340 36.48V37H328.768ZM335.632 15.524C336.36 14.38 337.036 13.4787 337.66 12.82C338.284 12.1267 339.081 11.572 340.052 11.156C341.022 10.7053 342.236 10.48 343.692 10.48L343.016 15.472C342.357 15.1253 341.646 14.848 340.884 14.64C340.156 14.432 339.584 14.328 339.168 14.328C338.44 14.328 337.885 14.484 337.504 14.796C337.157 15.0733 336.932 15.524 336.828 16.148C336.724 16.7373 336.672 17.6213 336.672 18.8L335.632 15.524ZM350.624 9.076C349.619 9.076 348.769 8.74667 348.076 8.088C347.417 7.42933 347.088 6.59733 347.088 5.592C347.088 4.62133 347.417 3.80667 348.076 3.148C348.769 2.45467 349.619 2.108 350.624 2.108C351.595 2.108 352.427 2.45467 353.12 3.148C353.813 3.80667 354.16 4.62133 354.16 5.592C354.16 6.56266 353.813 7.39466 353.12 8.088C352.461 8.74667 351.629 9.076 350.624 9.076ZM353.328 28.94C353.328 31.0547 353.415 32.632 353.588 33.672C353.761 34.6773 354.039 35.3707 354.42 35.752C354.801 36.0987 355.373 36.3413 356.136 36.48V37H345.424V36.48C346.187 36.3413 346.759 36.0987 347.14 35.752C347.521 35.3707 347.799 34.6773 347.972 33.672C348.145 32.632 348.232 31.0547 348.232 28.94V19.164C348.232 17.5 348.145 16.252 347.972 15.42C347.833 14.5533 347.573 13.9293 347.192 13.548C346.811 13.132 346.221 12.872 345.424 12.768V12.248C346.499 12.248 347.816 12.0573 349.376 11.676C350.936 11.2947 352.167 10.896 353.068 10.48H353.328V28.94ZM358.069 37V36.48C358.762 36.3413 359.299 36.0467 359.681 35.596C360.097 35.1453 360.391 34.4867 360.565 33.62C360.773 32.7187 360.877 31.54 360.877 30.084V19.164C360.877 17.5347 360.79 16.2867 360.617 15.42C360.478 14.5533 360.201 13.9293 359.785 13.548C359.403 13.132 358.831 12.872 358.069 12.768V12.248C359.143 12.248 360.443 12.0573 361.969 11.676C363.494 11.2947 364.69 10.896 365.557 10.48H365.869L365.765 13.6L365.973 14.224V30.084C365.973 31.6787 366.025 32.892 366.129 33.724C366.233 34.556 366.441 35.1973 366.753 35.648C367.065 36.064 367.55 36.3413 368.209 36.48V37H358.069ZM371.121 37V36.48C371.779 36.3413 372.265 36.064 372.577 35.648C372.889 35.1973 373.097 34.556 373.201 33.724C373.305 32.892 373.357 31.6787 373.357 30.084V17.916C373.357 16.1827 373.079 15.0213 372.525 14.432C372.005 13.8427 371.051 13.548 369.665 13.548C368.209 13.548 366.77 14.016 365.349 14.952L365.141 13.912C366.458 12.872 367.862 12.04 369.353 11.416C370.878 10.792 372.265 10.48 373.513 10.48C375.177 10.48 376.407 10.9653 377.205 11.936C378.037 12.9067 378.453 14.5187 378.453 16.772V30.084C378.453 31.54 378.539 32.7187 378.713 33.62C378.921 34.4867 379.215 35.1453 379.597 35.596C380.013 36.0467 380.567 36.3413 381.261 36.48V37H371.121ZM392.931 47.4C391.024 47.4 389.36 46.828 387.939 45.684C386.552 44.54 385.633 42.8933 385.183 40.744L385.599 40.536C386.5 41.6453 387.557 42.4427 388.771 42.928C389.984 43.4133 391.18 43.656 392.359 43.656C394.161 43.656 395.548 43.1707 396.519 42.2C397.489 41.2293 397.975 39.652 397.975 37.468V12.352C398.807 12.04 399.639 11.728 400.471 11.416C401.337 11.104 402.135 10.792 402.863 10.48L403.331 10.792C403.227 11.9013 403.157 13.0107 403.123 14.12C403.088 15.2293 403.071 16.876 403.071 19.06V35.18C403.071 38.9587 402.273 41.94 400.679 44.124C399.119 46.308 396.536 47.4 392.931 47.4ZM392.047 37.728C389.481 37.728 387.471 36.7227 386.015 34.712C384.593 32.7013 383.883 29.8413 383.883 26.132C383.883 23.0813 384.229 20.3947 384.923 18.072C385.651 15.7147 386.76 13.86 388.251 12.508C389.776 11.156 391.683 10.48 393.971 10.48C394.941 10.48 395.895 10.7053 396.831 11.156C397.767 11.6067 398.408 12.3 398.755 13.236L398.391 13.964C398.044 13.2707 397.455 12.7507 396.623 12.404C395.825 12.0227 395.097 11.832 394.439 11.832C392.601 11.832 391.301 12.8547 390.539 14.9C389.811 16.9453 389.447 20.0653 389.447 24.26C389.447 27.9 389.828 30.656 390.591 32.528C391.353 34.4 392.636 35.336 394.439 35.336C395.375 35.336 396.189 35.0067 396.883 34.348C397.611 33.6893 397.975 32.6667 397.975 31.28L398.391 33.568C397.871 34.92 397.039 35.96 395.895 36.688C394.785 37.3813 393.503 37.728 392.047 37.728ZM417.583 12.82C420.391 10.6013 422.662 7.932 424.395 4.812H424.915V11.52H431.623V12.144L430.063 13.34H424.915V30.864C424.915 32.2507 425.123 33.2387 425.539 33.828C425.955 34.3827 426.666 34.66 427.671 34.66C428.399 34.66 429.04 34.4693 429.595 34.088C430.15 33.7067 430.6 33.0827 430.947 32.216L431.363 32.32C431.155 34.192 430.514 35.5613 429.439 36.428C428.364 37.2947 427.082 37.728 425.591 37.728C423.684 37.728 422.246 37.208 421.275 36.168C420.304 35.0933 419.819 33.3947 419.819 31.072V13.34H417.583V12.82ZM443.798 37.728C439.95 37.728 437.211 36.48 435.582 33.984C433.987 31.488 433.19 28.2813 433.19 24.364C433.19 20.308 434.039 16.98 435.738 14.38C437.471 11.78 440.158 10.48 443.798 10.48C447.611 10.48 450.333 11.7453 451.962 14.276C453.591 16.8067 454.406 20.0307 454.406 23.948C454.406 27.9693 453.539 31.28 451.806 33.88C450.107 36.4453 447.438 37.728 443.798 37.728ZM443.902 36.532C444.977 36.532 445.861 36.168 446.554 35.44C447.282 34.712 447.837 33.4467 448.218 31.644C448.634 29.8067 448.842 27.3107 448.842 24.156C448.842 20.0653 448.409 16.9627 447.542 14.848C446.675 12.7333 445.393 11.676 443.694 11.676C442.619 11.676 441.718 12.0573 440.99 12.82C440.297 13.548 439.742 14.8307 439.326 16.668C438.945 18.5053 438.754 21.0013 438.754 24.156C438.754 28.2467 439.187 31.332 440.054 33.412C440.921 35.492 442.203 36.532 443.902 36.532ZM467.704 12.82C470.512 10.6013 472.783 7.932 474.516 4.812H475.036V11.52H481.744V12.144L480.184 13.34H475.036V30.864C475.036 32.2507 475.244 33.2387 475.66 33.828C476.076 34.3827 476.787 34.66 477.792 34.66C478.52 34.66 479.161 34.4693 479.716 34.088C480.271 33.7067 480.721 33.0827 481.068 32.216L481.484 32.32C481.276 34.192 480.635 35.5613 479.56 36.428C478.485 37.2947 477.203 37.728 475.712 37.728C473.805 37.728 472.367 37.208 471.396 36.168C470.425 35.0933 469.94 33.3947 469.94 31.072V13.34H467.704V12.82ZM482.781 37V36.48C483.544 36.3413 484.116 36.0987 484.497 35.752C484.879 35.3707 485.156 34.6773 485.329 33.672C485.503 32.632 485.589 31.0547 485.589 28.94V8.192C485.589 6.56267 485.503 5.36667 485.329 4.604C485.191 3.80667 484.931 3.252 484.549 2.94C484.168 2.628 483.579 2.42 482.781 2.316V1.796C483.925 1.796 485.208 1.64 486.629 1.328C488.085 1.016 489.351 0.617331 490.425 0.131997H490.685V28.94C490.685 31.0547 490.772 32.632 490.945 33.672C491.119 34.6773 491.396 35.3707 491.777 35.752C492.159 36.0987 492.731 36.3413 493.493 36.48V37H482.781ZM495.261 37V36.48C496.024 36.3413 496.596 36.0987 496.977 35.752C497.359 35.3707 497.636 34.6773 497.809 33.672C497.983 32.632 498.069 31.0547 498.069 28.94V18.332C498.069 16.564 497.792 15.3333 497.237 14.64C496.683 13.912 495.729 13.548 494.377 13.548C493.615 13.548 492.869 13.6867 492.141 13.964C491.413 14.2067 490.72 14.536 490.061 14.952L489.853 13.912C491.171 12.872 492.575 12.04 494.065 11.416C495.591 10.792 496.977 10.48 498.225 10.48C499.889 10.48 501.12 10.9653 501.917 11.936C502.749 12.9067 503.165 14.5187 503.165 16.772V28.94C503.165 31.0547 503.252 32.632 503.425 33.672C503.599 34.6773 503.876 35.3707 504.257 35.752C504.639 36.0987 505.211 36.3413 505.973 36.48V37H495.261ZM519.106 37.728C515.258 37.728 512.52 36.48 510.89 33.984C509.296 31.488 508.498 28.2813 508.498 24.364C508.498 20.308 509.348 16.98 511.046 14.38C512.78 11.78 515.466 10.48 519.106 10.48C522.92 10.48 525.641 11.7453 527.27 14.276C528.9 16.8067 529.714 20.0307 529.714 23.948C529.714 27.9693 528.848 31.28 527.114 33.88C525.416 36.4453 522.746 37.728 519.106 37.728ZM519.21 36.532C520.285 36.532 521.169 36.168 521.862 35.44C522.59 34.712 523.145 33.4467 523.526 31.644C523.942 29.8067 524.15 27.3107 524.15 24.156C524.15 20.0653 523.717 16.9627 522.85 14.848C521.984 12.7333 520.701 11.676 519.002 11.676C517.928 11.676 517.026 12.0573 516.298 12.82C515.605 13.548 515.05 14.8307 514.634 16.668C514.253 18.5053 514.062 21.0013 514.062 24.156C514.062 28.2467 514.496 31.332 515.362 33.412C516.229 35.492 517.512 36.532 519.21 36.532ZM541.393 37.676C538.932 37.676 536.956 37.1733 535.465 36.168C533.974 35.1627 533.229 33.7933 533.229 32.06C533.229 31.4013 533.35 30.708 533.593 29.98L537.701 28.576C537.458 29.512 537.337 30.3787 537.337 31.176C537.337 32.8747 537.736 34.2093 538.533 35.18C539.33 36.1507 540.474 36.636 541.965 36.636C543.213 36.636 544.253 36.2893 545.085 35.596C545.917 34.9027 546.333 33.7587 546.333 32.164C546.333 30.7427 545.952 29.616 545.189 28.784C544.461 27.952 543.109 27.172 541.133 26.444C538.36 25.4387 536.366 24.2773 535.153 22.96C533.94 21.6427 533.333 20.0307 533.333 18.124C533.333 16.7027 533.662 15.42 534.321 14.276C535.014 13.0973 536.02 12.1787 537.337 11.52C538.654 10.8267 540.266 10.48 542.173 10.48C544.392 10.48 546.212 10.9133 547.633 11.78C549.089 12.612 549.817 13.7907 549.817 15.316C549.817 15.9747 549.696 16.616 549.453 17.24L545.657 18.488C545.83 17.8293 545.917 17.2227 545.917 16.668C545.917 15.004 545.553 13.7387 544.825 12.872C544.097 11.9707 542.988 11.52 541.497 11.52C540.284 11.52 539.365 11.9013 538.741 12.664C538.117 13.4267 537.805 14.3627 537.805 15.472C537.805 16.824 538.238 17.968 539.105 18.904C540.006 19.8053 541.532 20.672 543.681 21.504C545.484 22.1973 546.888 22.9427 547.893 23.74C548.898 24.5027 549.609 25.352 550.025 26.288C550.441 27.1893 550.649 28.2467 550.649 29.46C550.649 31.9213 549.886 33.9147 548.361 35.44C546.836 36.9307 544.513 37.676 541.393 37.676ZM564.088 37.728C561.765 37.728 559.841 37.156 558.316 36.012C556.825 34.8333 555.716 33.2387 554.988 31.228C554.294 29.2173 553.948 26.8947 553.948 24.26C553.948 21.764 554.312 19.476 555.04 17.396C555.802 15.2813 556.929 13.6 558.42 12.352C559.945 11.104 561.834 10.48 564.088 10.48C567.173 10.48 569.374 11.52 570.692 13.6C572.044 15.6453 572.72 18.5747 572.72 22.388H557.484L557.536 21.348H567.208C567.138 18.7827 566.982 16.7893 566.74 15.368C566.532 13.9467 566.185 12.9413 565.7 12.352C565.214 11.728 564.556 11.416 563.724 11.416C562.926 11.416 562.233 11.7453 561.644 12.404C561.054 13.0627 560.569 14.172 560.188 15.732C559.841 17.2573 559.65 19.2853 559.616 21.816L559.512 22.128V23.116C559.512 26.3747 559.962 28.888 560.864 30.656C561.765 32.3893 563.412 33.256 565.804 33.256C567.19 33.256 568.404 32.9613 569.444 32.372C570.518 31.748 571.42 30.7253 572.148 29.304L572.616 29.408C572.234 32.1813 571.298 34.2613 569.808 35.648C568.352 37.0347 566.445 37.728 564.088 37.728ZM596.894 37.728C593.808 37.728 591.33 36.6187 589.458 34.4C587.62 32.1467 586.702 28.7493 586.702 24.208C586.702 21.712 587.083 19.424 587.846 17.344C588.608 15.264 589.77 13.6 591.33 12.352C592.89 11.104 594.796 10.48 597.05 10.48C599.858 10.48 601.886 11.052 603.134 12.196C604.416 13.3053 605.058 14.7267 605.058 16.46C605.058 16.772 605.023 17.2053 604.954 17.76L600.43 19.268L600.534 17.188C600.534 14.9693 600.17 13.4613 599.442 12.664C598.714 11.832 597.778 11.416 596.634 11.416C595.108 11.416 593.999 12.3 593.306 14.068C592.612 15.8013 592.266 18.176 592.266 21.192C592.266 25.56 592.82 28.6627 593.93 30.5C595.039 32.3373 596.703 33.256 598.922 33.256C600.412 33.256 601.66 32.944 602.666 32.32C603.706 31.696 604.538 30.6387 605.162 29.148L605.63 29.2C605.318 32.0773 604.382 34.2267 602.822 35.648C601.296 37.0347 599.32 37.728 596.894 37.728ZM619.196 37.728C615.348 37.728 612.61 36.48 610.98 33.984C609.386 31.488 608.588 28.2813 608.588 24.364C608.588 20.308 609.438 16.98 611.136 14.38C612.87 11.78 615.556 10.48 619.196 10.48C623.01 10.48 625.731 11.7453 627.36 14.276C628.99 16.8067 629.804 20.0307 629.804 23.948C629.804 27.9693 628.938 31.28 627.204 33.88C625.506 36.4453 622.836 37.728 619.196 37.728ZM619.3 36.532C620.375 36.532 621.259 36.168 621.952 35.44C622.68 34.712 623.235 33.4467 623.616 31.644C624.032 29.8067 624.24 27.3107 624.24 24.156C624.24 20.0653 623.807 16.9627 622.94 14.848C622.074 12.7333 620.791 11.676 619.092 11.676C618.018 11.676 617.116 12.0573 616.388 12.82C615.695 13.548 615.14 14.8307 614.724 16.668C614.343 18.5053 614.152 21.0013 614.152 24.156C614.152 28.2467 614.586 31.332 615.452 33.412C616.319 35.492 617.602 36.532 619.3 36.532ZM632.643 37V36.48C633.336 36.3413 633.873 36.0467 634.255 35.596C634.671 35.1453 634.965 34.4867 635.139 33.62C635.347 32.7187 635.451 31.54 635.451 30.084V19.164C635.451 17.5347 635.364 16.2867 635.191 15.42C635.052 14.5533 634.775 13.9293 634.359 13.548C633.977 13.132 633.405 12.872 632.643 12.768V12.248C633.717 12.248 635.017 12.0573 636.543 11.676C638.068 11.2947 639.264 10.896 640.131 10.48H640.443L640.339 13.6L640.547 14.224V30.084C640.547 31.6787 640.599 32.892 640.703 33.724C640.807 34.556 641.015 35.1973 641.327 35.648C641.639 36.064 642.124 36.3413 642.783 36.48V37H632.643ZM645.695 37V36.48C646.353 36.3413 646.839 36.064 647.151 35.648C647.463 35.1973 647.671 34.556 647.775 33.724C647.879 32.892 647.931 31.6787 647.931 30.084V17.916C647.931 16.1827 647.653 15.0213 647.099 14.432C646.579 13.8427 645.625 13.548 644.239 13.548C642.783 13.548 641.344 14.016 639.923 14.952L639.715 13.912C641.032 12.872 642.436 12.04 643.927 11.416C645.452 10.792 646.839 10.48 648.087 10.48C649.751 10.48 650.981 10.9653 651.779 11.936C652.611 12.9067 653.027 14.5187 653.027 16.772V30.084C653.027 31.54 653.113 32.7187 653.287 33.62C653.495 34.4867 653.789 35.1453 654.171 35.596C654.587 36.0467 655.141 36.3413 655.835 36.48V37H645.695ZM657.677 12.82C660.485 10.6013 662.755 7.932 664.489 4.812H665.009V11.52H671.717V12.144L670.157 13.34H665.009V30.864C665.009 32.2507 665.217 33.2387 665.633 33.828C666.049 34.3827 666.759 34.66 667.765 34.66C668.493 34.66 669.134 34.4693 669.689 34.088C670.243 33.7067 670.694 33.0827 671.041 32.216L671.457 32.32C671.249 34.192 670.607 35.5613 669.533 36.428C668.458 37.2947 667.175 37.728 665.685 37.728C663.778 37.728 662.339 37.208 661.369 36.168C660.398 35.0933 659.913 33.3947 659.913 31.072V13.34H657.677V12.82ZM683.424 37.728C681.101 37.728 679.177 37.156 677.652 36.012C676.161 34.8333 675.052 33.2387 674.324 31.228C673.63 29.2173 673.284 26.8947 673.284 24.26C673.284 21.764 673.648 19.476 674.376 17.396C675.138 15.2813 676.265 13.6 677.756 12.352C679.281 11.104 681.17 10.48 683.424 10.48C686.509 10.48 688.71 11.52 690.028 13.6C691.38 15.6453 692.056 18.5747 692.056 22.388H676.82L676.872 21.348H686.544C686.474 18.7827 686.318 16.7893 686.076 15.368C685.868 13.9467 685.521 12.9413 685.036 12.352C684.55 11.728 683.892 11.416 683.06 11.416C682.262 11.416 681.569 11.7453 680.98 12.404C680.39 13.0627 679.905 14.172 679.524 15.732C679.177 17.2573 678.986 19.2853 678.952 21.816L678.848 22.128V23.116C678.848 26.3747 679.298 28.888 680.2 30.656C681.101 32.3893 682.748 33.256 685.14 33.256C686.526 33.256 687.74 32.9613 688.78 32.372C689.854 31.748 690.756 30.7253 691.484 29.304L691.952 29.408C691.57 32.1813 690.634 34.2613 689.144 35.648C687.688 37.0347 685.781 37.728 683.424 37.728ZM694.85 37V36.48C695.543 36.3413 696.08 36.0467 696.462 35.596C696.878 35.1453 697.172 34.4867 697.346 33.62C697.554 32.7187 697.658 31.54 697.658 30.084V19.164C697.658 17.5347 697.571 16.2867 697.398 15.42C697.259 14.5533 696.982 13.9293 696.566 13.548C696.184 13.132 695.612 12.872 694.85 12.768V12.248C695.924 12.248 697.224 12.0573 698.75 11.676C700.275 11.2947 701.471 10.896 702.338 10.48H702.65L702.546 13.6L702.754 14.224V30.084C702.754 31.6787 702.806 32.892 702.91 33.724C703.014 34.556 703.222 35.1973 703.534 35.648C703.846 36.064 704.331 36.3413 704.99 36.48V37H694.85ZM707.902 37V36.48C708.56 36.3413 709.046 36.064 709.358 35.648C709.67 35.1973 709.878 34.556 709.982 33.724C710.086 32.892 710.138 31.6787 710.138 30.084V17.916C710.138 16.1827 709.86 15.0213 709.306 14.432C708.786 13.8427 707.832 13.548 706.446 13.548C704.99 13.548 703.551 14.016 702.13 14.952L701.922 13.912C703.239 12.872 704.643 12.04 706.134 11.416C707.659 10.792 709.046 10.48 710.294 10.48C711.958 10.48 713.188 10.9653 713.986 11.936C714.818 12.9067 715.234 14.5187 715.234 16.772V30.084C715.234 31.54 715.32 32.7187 715.494 33.62C715.702 34.4867 715.996 35.1453 716.378 35.596C716.794 36.0467 717.348 36.3413 718.042 36.48V37H707.902ZM719.884 12.82C722.692 10.6013 724.962 7.932 726.696 4.812H727.216V11.52H733.924V12.144L732.364 13.34H727.216V30.864C727.216 32.2507 727.424 33.2387 727.84 33.828C728.256 34.3827 728.966 34.66 729.972 34.66C730.7 34.66 731.341 34.4693 731.896 34.088C732.45 33.7067 732.901 33.0827 733.248 32.216L733.664 32.32C733.456 34.192 732.814 35.5613 731.74 36.428C730.665 37.2947 729.382 37.728 727.892 37.728C725.985 37.728 724.546 37.208 723.576 36.168C722.605 35.0933 722.12 33.3947 722.12 31.072V13.34H719.884V12.82ZM744.061 37.676C741.6 37.676 739.624 37.1733 738.133 36.168C736.642 35.1627 735.897 33.7933 735.897 32.06C735.897 31.4013 736.018 30.708 736.261 29.98L740.369 28.576C740.126 29.512 740.005 30.3787 740.005 31.176C740.005 32.8747 740.404 34.2093 741.201 35.18C741.998 36.1507 743.142 36.636 744.633 36.636C745.881 36.636 746.921 36.2893 747.753 35.596C748.585 34.9027 749.001 33.7587 749.001 32.164C749.001 30.7427 748.62 29.616 747.857 28.784C747.129 27.952 745.777 27.172 743.801 26.444C741.028 25.4387 739.034 24.2773 737.821 22.96C736.608 21.6427 736.001 20.0307 736.001 18.124C736.001 16.7027 736.33 15.42 736.989 14.276C737.682 13.0973 738.688 12.1787 740.005 11.52C741.322 10.8267 742.934 10.48 744.841 10.48C747.06 10.48 748.88 10.9133 750.301 11.78C751.757 12.612 752.485 13.7907 752.485 15.316C752.485 15.9747 752.364 16.616 752.121 17.24L748.325 18.488C748.498 17.8293 748.585 17.2227 748.585 16.668C748.585 15.004 748.221 13.7387 747.493 12.872C746.765 11.9707 745.656 11.52 744.165 11.52C742.952 11.52 742.033 11.9013 741.409 12.664C740.785 13.4267 740.473 14.3627 740.473 15.472C740.473 16.824 740.906 17.968 741.773 18.904C742.674 19.8053 744.2 20.672 746.349 21.504C748.152 22.1973 749.556 22.9427 750.561 23.74C751.566 24.5027 752.277 25.352 752.693 26.288C753.109 27.1893 753.317 28.2467 753.317 29.46C753.317 31.9213 752.554 33.9147 751.029 35.44C749.504 36.9307 747.181 37.676 744.061 37.676ZM758.124 40.796C758.852 40.38 759.354 39.9987 759.632 39.652C759.909 39.34 760.048 39.0107 760.048 38.664C760.048 38.3867 759.978 38.144 759.84 37.936C759.701 37.7627 759.493 37.5893 759.216 37.416C758.522 37.0347 757.968 36.6013 757.552 36.116C757.17 35.6307 756.98 34.8853 756.98 33.88C756.98 32.84 757.309 31.9907 757.968 31.332C758.626 30.6387 759.493 30.292 760.568 30.292C761.781 30.292 762.7 30.6733 763.324 31.436C763.948 32.164 764.26 33.1693 764.26 34.452C764.26 36.1507 763.67 37.6587 762.492 38.976C761.313 40.2933 759.892 41.1427 758.228 41.524L757.968 40.9L758.124 40.796ZM18.888 99.728C17.5707 99.728 16.6693 99.3293 16.184 98.532C15.7333 97.7 15.4387 96.7293 15.3 95.62C15.2653 95.4467 15.2307 95.2733 15.196 95.1L14.936 94.996V82.1C14.936 79.8467 14.572 78.2347 13.844 77.264C13.116 76.2933 11.8333 75.808 9.996 75.808C8.748 75.808 7.62133 76.0507 6.616 76.536C5.64533 76.9867 4.70933 77.6973 3.808 78.668L3.288 78.304C3.46133 77.368 3.964 76.4493 4.796 75.548C5.628 74.6467 6.668 73.9187 7.916 73.364C9.164 72.7747 10.464 72.48 11.816 72.48C14.4853 72.48 16.5133 73.156 17.9 74.508C19.3213 75.8253 20.032 77.9227 20.032 80.8V93.852C20.032 94.6147 20.1533 95.2213 20.396 95.672C20.6387 96.1227 21.1413 96.348 21.904 96.348C22.2507 96.348 22.4933 96.3307 22.632 96.296L22.788 96.504C22.58 97.6133 22.1293 98.428 21.436 98.948C20.7773 99.468 19.928 99.728 18.888 99.728ZM8.748 99.728C6.772 99.728 5.24667 99.052 4.172 97.7C3.09733 96.348 2.56 94.6667 2.56 92.656C2.56 90.7493 2.924 89.1893 3.652 87.976C4.41467 86.7627 5.69733 85.7573 7.5 84.96C9.33733 84.128 11.92 83.4 15.248 82.776V83.608C13.272 84.0587 11.764 84.6307 10.724 85.324C9.71867 86.0173 9.02533 86.8667 8.644 87.872C8.29733 88.8773 8.124 90.16 8.124 91.72C8.124 93.5573 8.45333 94.9613 9.112 95.932C9.80533 96.868 10.62 97.336 11.556 97.336C12.6307 97.336 13.4627 96.972 14.052 96.244C14.6413 95.516 14.936 94.2853 14.936 92.552L15.664 94.892C15.04 96.66 14.0867 97.908 12.804 98.636C11.556 99.364 10.204 99.728 8.748 99.728ZM24.6389 99V98.48C25.3322 98.3413 25.8695 98.0467 26.2509 97.596C26.6669 97.1453 26.9615 96.4867 27.1349 95.62C27.3429 94.7187 27.4469 93.54 27.4469 92.084V81.164C27.4469 79.5347 27.3602 78.2867 27.1869 77.42C27.0482 76.5533 26.7709 75.9293 26.3549 75.548C25.9735 75.132 25.4015 74.872 24.6389 74.768V74.248C25.7135 74.248 27.0135 74.0573 28.5389 73.676C30.0642 73.2947 31.2602 72.896 32.1269 72.48H32.4389L32.3349 75.6L32.5429 76.224V92.084C32.5429 93.6787 32.5949 94.892 32.6989 95.724C32.8029 96.556 33.0109 97.1973 33.3229 97.648C33.6349 98.064 34.1202 98.3413 34.7789 98.48V99H24.6389ZM37.6909 99V98.48C38.3495 98.3413 38.8349 98.064 39.1469 97.648C39.4589 97.1973 39.6669 96.556 39.7709 95.724C39.8749 94.892 39.9269 93.6787 39.9269 92.084V79.916C39.9269 78.1827 39.6495 77.0213 39.0949 76.432C38.5749 75.8427 37.6215 75.548 36.2349 75.548C34.7789 75.548 33.3402 76.016 31.9189 76.952L31.7109 75.912C33.0282 74.872 34.4322 74.04 35.9229 73.416C37.4482 72.792 38.8349 72.48 40.0829 72.48C41.7469 72.48 42.9775 72.9653 43.7749 73.936C44.6069 74.9067 45.0229 76.5187 45.0229 78.772V92.084C45.0229 93.54 45.1095 94.7187 45.2829 95.62C45.4909 96.4867 45.7855 97.1453 46.1669 97.596C46.5829 98.0467 47.1375 98.3413 47.8309 98.48V99H37.6909ZM58.6168 99.728C56.0515 99.728 54.0408 98.7227 52.5848 96.712C51.1635 94.7013 50.4528 91.8413 50.4528 88.132C50.4528 85.0813 50.7995 82.3947 51.4928 80.072C52.2208 77.7147 53.3301 75.86 54.8208 74.508C56.3461 73.156 58.2528 72.48 60.5408 72.48C61.5115 72.48 62.4648 72.7053 63.4008 73.156C64.3368 73.6067 64.9781 74.3 65.3248 75.236L64.9608 75.964C64.6141 75.2707 64.0248 74.7507 63.1928 74.404C62.3955 74.0227 61.6675 73.832 61.0088 73.832C59.1715 73.832 57.8715 74.8547 57.1088 76.9C56.3808 78.9453 56.0168 82.0653 56.0168 86.26C56.0168 89.9 56.3981 92.656 57.1608 94.528C57.9235 96.4 59.2061 97.336 61.0088 97.336C61.9448 97.336 62.7595 97.0067 63.4528 96.348C64.1808 95.6893 64.5448 94.6667 64.5448 93.28L64.9608 95.568C64.4408 96.92 63.6088 97.96 62.4648 98.688C61.3555 99.3813 60.0728 99.728 58.6168 99.728ZM65.2208 99.728L64.7008 95.256L64.5448 95.152V70.192C64.5448 68.5627 64.4581 67.3667 64.2848 66.604C64.1461 65.8067 63.8861 65.252 63.5048 64.94C63.1235 64.628 62.5341 64.42 61.7368 64.316V63.796C62.8808 63.796 64.1635 63.64 65.5848 63.328C67.0408 63.016 68.3061 62.6173 69.3808 62.132H69.6408V91.46C69.6408 93.124 69.7101 94.3893 69.8488 95.256C70.0221 96.088 70.2995 96.712 70.6808 97.128C71.0621 97.5093 71.6515 97.752 72.4488 97.856V98.376C71.3048 98.376 70.0741 98.5147 68.7568 98.792C67.4395 99.0347 66.4168 99.3467 65.6888 99.728H65.2208ZM93.5035 99.728C90.9382 99.728 88.9275 98.7227 87.4715 96.712C86.0502 94.7013 85.3395 91.8413 85.3395 88.132C85.3395 85.0813 85.6862 82.3947 86.3795 80.072C87.1075 77.7147 88.2169 75.86 89.7075 74.508C91.2329 73.156 93.1395 72.48 95.4275 72.48C96.3982 72.48 97.3515 72.7053 98.2875 73.156C99.2235 73.6067 99.8649 74.3 100.212 75.236L99.8475 75.964C99.5009 75.2707 98.9115 74.7507 98.0795 74.404C97.2822 74.0227 96.5542 73.832 95.8955 73.832C94.0582 73.832 92.7582 74.8547 91.9955 76.9C91.2675 78.9453 90.9035 82.0653 90.9035 86.26C90.9035 89.9 91.2849 92.656 92.0475 94.528C92.8102 96.4 94.0929 97.336 95.8955 97.336C96.8315 97.336 97.6462 97.0067 98.3395 96.348C99.0675 95.6893 99.4315 94.6667 99.4315 93.28L99.8475 95.568C99.3275 96.92 98.4955 97.96 97.3515 98.688C96.2422 99.3813 94.9595 99.728 93.5035 99.728ZM100.108 99.728L99.5875 95.256L99.4315 95.152V70.192C99.4315 68.5627 99.3449 67.3667 99.1715 66.604C99.0329 65.8067 98.7729 65.252 98.3915 64.94C98.0102 64.628 97.4209 64.42 96.6235 64.316V63.796C97.7675 63.796 99.0502 63.64 100.472 63.328C101.928 63.016 103.193 62.6173 104.268 62.132H104.528V91.46C104.528 93.124 104.597 94.3893 104.736 95.256C104.909 96.088 105.186 96.712 105.568 97.128C105.949 97.5093 106.538 97.752 107.336 97.856V98.376C106.192 98.376 104.961 98.5147 103.644 98.792C102.326 99.0347 101.304 99.3467 100.576 99.728H100.108ZM119.803 99.728C117.48 99.728 115.556 99.156 114.031 98.012C112.54 96.8333 111.431 95.2387 110.703 93.228C110.009 91.2173 109.663 88.8947 109.663 86.26C109.663 83.764 110.027 81.476 110.755 79.396C111.517 77.2813 112.644 75.6 114.135 74.352C115.66 73.104 117.549 72.48 119.803 72.48C122.888 72.48 125.089 73.52 126.407 75.6C127.759 77.6453 128.435 80.5747 128.435 84.388H113.199L113.251 83.348H122.923C122.853 80.7827 122.697 78.7893 122.455 77.368C122.247 75.9467 121.9 74.9413 121.415 74.352C120.929 73.728 120.271 73.416 119.439 73.416C118.641 73.416 117.948 73.7453 117.359 74.404C116.769 75.0627 116.284 76.172 115.903 77.732C115.556 79.2573 115.365 81.2853 115.331 83.816L115.227 84.128V85.116C115.227 88.3747 115.677 90.888 116.579 92.656C117.48 94.3893 119.127 95.256 121.519 95.256C122.905 95.256 124.119 94.9613 125.159 94.372C126.233 93.748 127.135 92.7253 127.863 91.304L128.331 91.408C127.949 94.1813 127.013 96.2613 125.523 97.648C124.067 99.0347 122.16 99.728 119.803 99.728ZM130.969 99V98.48C131.731 98.3413 132.303 98.0987 132.685 97.752C133.066 97.3707 133.343 96.6773 133.517 95.672C133.69 94.632 133.777 93.0547 133.777 90.94V70.192C133.777 68.5627 133.69 67.3667 133.517 66.604C133.378 65.8067 133.118 65.252 132.737 64.94C132.355 64.628 131.766 64.42 130.969 64.316V63.796C132.113 63.796 133.395 63.64 134.817 63.328C136.273 63.016 137.538 62.6173 138.613 62.132H138.873V90.94C138.873 93.0547 138.959 94.632 139.133 95.672C139.341 96.6773 139.635 97.3533 140.017 97.7C140.433 98.0467 141.039 98.3067 141.837 98.48V99H130.969ZM148.87 71.076C147.865 71.076 147.015 70.7467 146.322 70.088C145.663 69.4293 145.334 68.5973 145.334 67.592C145.334 66.6213 145.663 65.8067 146.322 65.148C147.015 64.4547 147.865 64.108 148.87 64.108C149.841 64.108 150.673 64.4547 151.366 65.148C152.059 65.8067 152.406 66.6213 152.406 67.592C152.406 68.5627 152.059 69.3947 151.366 70.088C150.707 70.7467 149.875 71.076 148.87 71.076ZM151.574 90.94C151.574 93.0547 151.661 94.632 151.834 95.672C152.007 96.6773 152.285 97.3707 152.666 97.752C153.047 98.0987 153.619 98.3413 154.382 98.48V99H143.67V98.48C144.433 98.3413 145.005 98.0987 145.386 97.752C145.767 97.3707 146.045 96.6773 146.218 95.672C146.391 94.632 146.478 93.0547 146.478 90.94V81.164C146.478 79.5 146.391 78.252 146.218 77.42C146.079 76.5533 145.819 75.9293 145.438 75.548C145.057 75.132 144.467 74.872 143.67 74.768V74.248C144.745 74.248 146.062 74.0573 147.622 73.676C149.182 73.2947 150.413 72.896 151.314 72.48H151.574V90.94ZM165.675 99.988L160.579 85.532C159.504 82.4467 158.603 79.968 157.875 78.096C157.181 76.1893 156.679 75.0107 156.367 74.56C156.055 74.0747 155.691 73.7973 155.275 73.728V73.208H165.051V73.728C164.496 73.728 164.097 73.832 163.855 74.04C163.612 74.248 163.491 74.612 163.491 75.132C163.491 75.6173 163.612 76.432 163.855 77.576C164.097 78.6853 164.635 80.8173 165.467 83.972L168.015 93.592L166.247 99.988H165.675ZM166.403 96.452L167.443 93.384C168.517 90.7493 169.419 88.0627 170.147 85.324C170.909 82.5507 171.291 80.176 171.291 78.2C171.291 77.056 171.169 76.12 170.927 75.392C170.684 74.6293 170.285 74.0747 169.731 73.728V73.208H177.219V73.728C176.872 73.7973 176.508 74.1093 176.127 74.664C175.78 75.184 175.277 76.2587 174.619 77.888C173.96 79.4827 172.972 82.0307 171.655 85.532L166.247 99.988L166.403 96.452ZM188.357 99.728C186.035 99.728 184.111 99.156 182.585 98.012C181.095 96.8333 179.985 95.2387 179.257 93.228C178.564 91.2173 178.217 88.8947 178.217 86.26C178.217 83.764 178.581 81.476 179.309 79.396C180.072 77.2813 181.199 75.6 182.689 74.352C184.215 73.104 186.104 72.48 188.357 72.48C191.443 72.48 193.644 73.52 194.961 75.6C196.313 77.6453 196.989 80.5747 196.989 84.388H181.753L181.805 83.348H191.477C191.408 80.7827 191.252 78.7893 191.009 77.368C190.801 75.9467 190.455 74.9413 189.969 74.352C189.484 73.728 188.825 73.416 187.993 73.416C187.196 73.416 186.503 73.7453 185.913 74.404C185.324 75.0627 184.839 76.172 184.457 77.732C184.111 79.2573 183.92 81.2853 183.885 83.816L183.781 84.128V85.116C183.781 88.3747 184.232 90.888 185.133 92.656C186.035 94.3893 187.681 95.256 190.073 95.256C191.46 95.256 192.673 94.9613 193.713 94.372C194.788 93.748 195.689 92.7253 196.417 91.304L196.885 91.408C196.504 94.1813 195.568 96.2613 194.077 97.648C192.621 99.0347 190.715 99.728 188.357 99.728ZM199.783 99V98.48C200.477 98.3413 201.031 98.0467 201.447 97.596C201.863 97.1453 202.158 96.4867 202.331 95.62C202.505 94.7533 202.591 93.5747 202.591 92.084V81.164C202.591 79.5 202.505 78.252 202.331 77.42C202.193 76.5533 201.933 75.9293 201.551 75.548C201.17 75.132 200.581 74.872 199.783 74.768V74.248C200.858 74.248 202.158 74.0573 203.683 73.676C205.209 73.2947 206.422 72.896 207.323 72.48H207.583L207.479 77.16L207.687 77.784V92.084C207.687 93.644 207.774 94.84 207.947 95.672C208.121 96.504 208.433 97.1453 208.883 97.596C209.369 98.0467 210.079 98.3413 211.015 98.48V99H199.783ZM206.647 77.524C207.375 76.38 208.051 75.4787 208.675 74.82C209.299 74.1267 210.097 73.572 211.067 73.156C212.038 72.7053 213.251 72.48 214.707 72.48L214.031 77.472C213.373 77.1253 212.662 76.848 211.899 76.64C211.171 76.432 210.599 76.328 210.183 76.328C209.455 76.328 208.901 76.484 208.519 76.796C208.173 77.0733 207.947 77.524 207.843 78.148C207.739 78.7373 207.687 79.6213 207.687 80.8L206.647 77.524ZM225.884 74.82C228.692 72.6013 230.962 69.932 232.696 66.812H233.216V73.52H239.924V74.144L238.364 75.34H233.216V92.864C233.216 94.2507 233.424 95.2387 233.84 95.828C234.256 96.3827 234.966 96.66 235.972 96.66C236.7 96.66 237.341 96.4693 237.896 96.088C238.45 95.7067 238.901 95.0827 239.248 94.216L239.664 94.32C239.456 96.192 238.814 97.5613 237.74 98.428C236.665 99.2947 235.382 99.728 233.892 99.728C231.985 99.728 230.546 99.208 229.576 98.168C228.605 97.0933 228.12 95.3947 228.12 93.072V75.34H225.884V74.82ZM240.961 99V98.48C241.724 98.3413 242.296 98.0987 242.677 97.752C243.058 97.3707 243.336 96.6773 243.509 95.672C243.682 94.632 243.769 93.0547 243.769 90.94V70.192C243.769 68.5627 243.682 67.3667 243.509 66.604C243.37 65.8067 243.11 65.252 242.729 64.94C242.348 64.628 241.758 64.42 240.961 64.316V63.796C242.105 63.796 243.388 63.64 244.809 63.328C246.265 63.016 247.53 62.6173 248.605 62.132H248.865V90.94C248.865 93.0547 248.952 94.632 249.125 95.672C249.298 96.6773 249.576 97.3707 249.957 97.752C250.338 98.0987 250.91 98.3413 251.673 98.48V99H240.961ZM253.441 99V98.48C254.204 98.3413 254.776 98.0987 255.157 97.752C255.538 97.3707 255.816 96.6773 255.989 95.672C256.162 94.632 256.249 93.0547 256.249 90.94V80.332C256.249 78.564 255.972 77.3333 255.417 76.64C254.862 75.912 253.909 75.548 252.557 75.548C251.794 75.548 251.049 75.6867 250.321 75.964C249.593 76.2067 248.9 76.536 248.241 76.952L248.033 75.912C249.35 74.872 250.754 74.04 252.245 73.416C253.77 72.792 255.157 72.48 256.405 72.48C258.069 72.48 259.3 72.9653 260.097 73.936C260.929 74.9067 261.345 76.5187 261.345 78.772V90.94C261.345 93.0547 261.432 94.632 261.605 95.672C261.778 96.6773 262.056 97.3707 262.437 97.752C262.818 98.0987 263.39 98.3413 264.153 98.48V99H253.441ZM276.818 99.728C274.495 99.728 272.571 99.156 271.046 98.012C269.555 96.8333 268.446 95.2387 267.718 93.228C267.025 91.2173 266.678 88.8947 266.678 86.26C266.678 83.764 267.042 81.476 267.77 79.396C268.533 77.2813 269.659 75.6 271.15 74.352C272.675 73.104 274.565 72.48 276.818 72.48C279.903 72.48 282.105 73.52 283.422 75.6C284.774 77.6453 285.45 80.5747 285.45 84.388H270.214L270.266 83.348H279.938C279.869 80.7827 279.713 78.7893 279.47 77.368C279.262 75.9467 278.915 74.9413 278.43 74.352C277.945 73.728 277.286 73.416 276.454 73.416C275.657 73.416 274.963 73.7453 274.374 74.404C273.785 75.0627 273.299 76.172 272.918 77.732C272.571 79.2573 272.381 81.2853 272.346 83.816L272.242 84.128V85.116C272.242 88.3747 272.693 90.888 273.594 92.656C274.495 94.3893 276.142 95.256 278.534 95.256C279.921 95.256 281.134 94.9613 282.174 94.372C283.249 93.748 284.15 92.7253 284.878 91.304L285.346 91.408C284.965 94.1813 284.029 96.2613 282.538 97.648C281.082 99.0347 279.175 99.728 276.818 99.728ZM312.944 98.48C313.638 98.3413 314.123 98.064 314.4 97.648C314.678 97.1973 314.851 96.5907 314.92 95.828C314.99 95.0653 315.024 93.8173 315.024 92.084V79.916C315.024 78.2173 314.764 77.0733 314.244 76.484C313.759 75.86 312.892 75.548 311.644 75.548C310.882 75.548 310.154 75.6693 309.46 75.912C308.767 76.1547 308.126 76.5013 307.536 76.952L307.328 75.912C308.715 74.8373 310.067 74.0053 311.384 73.416C312.702 72.792 313.967 72.48 315.18 72.48C316.81 72.48 318.023 72.9653 318.82 73.936C319.652 74.9067 320.068 76.5187 320.068 78.772V92.084C320.068 93.54 320.155 94.7187 320.328 95.62C320.536 96.4867 320.848 97.1453 321.264 97.596C321.68 98.0467 322.235 98.3413 322.928 98.48V99H312.944V98.48ZM288.192 98.48C288.886 98.3413 289.44 98.0467 289.856 97.596C290.272 97.1453 290.567 96.4867 290.74 95.62C290.948 94.7187 291.052 93.54 291.052 92.084V81.164C291.052 79.5347 290.966 78.2867 290.792 77.42C290.654 76.5533 290.376 75.9293 289.96 75.548C289.579 75.132 288.99 74.872 288.192 74.768V74.248C289.267 74.248 290.567 74.0573 292.092 73.676C293.652 73.2947 294.866 72.896 295.732 72.48H295.992L295.888 75.6L296.096 76.224V92.084C296.096 93.8173 296.131 95.0653 296.2 95.828C296.27 96.5907 296.443 97.1973 296.72 97.648C296.998 98.064 297.483 98.3413 298.176 98.48V99H288.192V98.48ZM300.932 98.48C301.626 98.3413 302.111 98.064 302.388 97.648C302.666 97.1973 302.839 96.5907 302.908 95.828C302.978 95.0653 303.012 93.8173 303.012 92.084V79.916C303.012 78.7373 302.891 77.836 302.648 77.212C302.44 76.588 302.094 76.1547 301.608 75.912C301.158 75.6693 300.516 75.548 299.684 75.548C298.194 75.548 296.807 76.016 295.524 76.952L295.316 75.912C296.703 74.8373 298.055 74.0053 299.372 73.416C300.69 72.792 301.955 72.48 303.168 72.48C304.832 72.48 306.063 72.9653 306.86 73.936C307.692 74.9067 308.108 76.5187 308.108 78.772V92.084C308.108 93.7827 308.143 95.0307 308.212 95.828C308.282 96.5907 308.455 97.1973 308.732 97.648C309.044 98.064 309.547 98.3413 310.24 98.48V99H300.932V98.48ZM340.468 71.076C339.462 71.076 338.613 70.7467 337.92 70.088C337.261 69.4293 336.932 68.5973 336.932 67.592C336.932 66.6213 337.261 65.8067 337.92 65.148C338.613 64.4547 339.462 64.108 340.468 64.108C341.438 64.108 342.27 64.4547 342.964 65.148C343.657 65.8067 344.004 66.6213 344.004 67.592C344.004 68.5627 343.657 69.3947 342.964 70.088C342.305 70.7467 341.473 71.076 340.468 71.076ZM343.172 90.94C343.172 93.0547 343.258 94.632 343.432 95.672C343.605 96.6773 343.882 97.3707 344.264 97.752C344.645 98.0987 345.217 98.3413 345.98 98.48V99H335.268V98.48C336.03 98.3413 336.602 98.0987 336.984 97.752C337.365 97.3707 337.642 96.6773 337.816 95.672C337.989 94.632 338.076 93.0547 338.076 90.94V81.164C338.076 79.5 337.989 78.252 337.816 77.42C337.677 76.5533 337.417 75.9293 337.036 75.548C336.654 75.132 336.065 74.872 335.268 74.768V74.248C336.342 74.248 337.66 74.0573 339.22 73.676C340.78 73.2947 342.01 72.896 342.912 72.48H343.172V90.94ZM347.912 99V98.48C348.606 98.3413 349.143 98.0467 349.524 97.596C349.94 97.1453 350.235 96.4867 350.408 95.62C350.616 94.7187 350.72 93.54 350.72 92.084V81.164C350.72 79.5347 350.634 78.2867 350.46 77.42C350.322 76.5533 350.044 75.9293 349.628 75.548C349.247 75.132 348.675 74.872 347.912 74.768V74.248C348.987 74.248 350.287 74.0573 351.812 73.676C353.338 73.2947 354.534 72.896 355.4 72.48H355.712L355.608 75.6L355.816 76.224V92.084C355.816 93.6787 355.868 94.892 355.972 95.724C356.076 96.556 356.284 97.1973 356.596 97.648C356.908 98.064 357.394 98.3413 358.052 98.48V99H347.912ZM360.964 99V98.48C361.623 98.3413 362.108 98.064 362.42 97.648C362.732 97.1973 362.94 96.556 363.044 95.724C363.148 94.892 363.2 93.6787 363.2 92.084V79.916C363.2 78.1827 362.923 77.0213 362.368 76.432C361.848 75.8427 360.895 75.548 359.508 75.548C358.052 75.548 356.614 76.016 355.192 76.952L354.984 75.912C356.302 74.872 357.706 74.04 359.196 73.416C360.722 72.792 362.108 72.48 363.356 72.48C365.02 72.48 366.251 72.9653 367.048 73.936C367.88 74.9067 368.296 76.5187 368.296 78.772V92.084C368.296 93.54 368.383 94.7187 368.556 95.62C368.764 96.4867 369.059 97.1453 369.44 97.596C369.856 98.0467 370.411 98.3413 371.104 98.48V99H360.964ZM400.306 99.728C398.989 99.728 398.087 99.3293 397.602 98.532C397.151 97.7 396.857 96.7293 396.718 95.62C396.683 95.4467 396.649 95.2733 396.614 95.1L396.354 94.996V82.1C396.354 79.8467 395.99 78.2347 395.262 77.264C394.534 76.2933 393.251 75.808 391.414 75.808C390.166 75.808 389.039 76.0507 388.034 76.536C387.063 76.9867 386.127 77.6973 385.226 78.668L384.706 78.304C384.879 77.368 385.382 76.4493 386.214 75.548C387.046 74.6467 388.086 73.9187 389.334 73.364C390.582 72.7747 391.882 72.48 393.234 72.48C395.903 72.48 397.931 73.156 399.318 74.508C400.739 75.8253 401.45 77.9227 401.45 80.8V93.852C401.45 94.6147 401.571 95.2213 401.814 95.672C402.057 96.1227 402.559 96.348 403.322 96.348C403.669 96.348 403.911 96.3307 404.05 96.296L404.206 96.504C403.998 97.6133 403.547 98.428 402.854 98.948C402.195 99.468 401.346 99.728 400.306 99.728ZM390.166 99.728C388.19 99.728 386.665 99.052 385.59 97.7C384.515 96.348 383.978 94.6667 383.978 92.656C383.978 90.7493 384.342 89.1893 385.07 87.976C385.833 86.7627 387.115 85.7573 388.918 84.96C390.755 84.128 393.338 83.4 396.666 82.776V83.608C394.69 84.0587 393.182 84.6307 392.142 85.324C391.137 86.0173 390.443 86.8667 390.062 87.872C389.715 88.8773 389.542 90.16 389.542 91.72C389.542 93.5573 389.871 94.9613 390.53 95.932C391.223 96.868 392.038 97.336 392.974 97.336C394.049 97.336 394.881 96.972 395.47 96.244C396.059 95.516 396.354 94.2853 396.354 92.552L397.082 94.892C396.458 96.66 395.505 97.908 394.222 98.636C392.974 99.364 391.622 99.728 390.166 99.728ZM406.057 99V98.48C406.75 98.3413 407.288 98.0467 407.669 97.596C408.085 97.1453 408.38 96.4867 408.553 95.62C408.761 94.7187 408.865 93.54 408.865 92.084V81.164C408.865 79.5347 408.778 78.2867 408.605 77.42C408.466 76.5533 408.189 75.9293 407.773 75.548C407.392 75.132 406.82 74.872 406.057 74.768V74.248C407.132 74.248 408.432 74.0573 409.957 73.676C411.482 73.2947 412.678 72.896 413.545 72.48H413.857L413.753 75.6L413.961 76.224V92.084C413.961 93.6787 414.013 94.892 414.117 95.724C414.221 96.556 414.429 97.1973 414.741 97.648C415.053 98.064 415.538 98.3413 416.197 98.48V99H406.057ZM419.109 99V98.48C419.768 98.3413 420.253 98.064 420.565 97.648C420.877 97.1973 421.085 96.556 421.189 95.724C421.293 94.892 421.345 93.6787 421.345 92.084V79.916C421.345 78.1827 421.068 77.0213 420.513 76.432C419.993 75.8427 419.04 75.548 417.653 75.548C416.197 75.548 414.758 76.016 413.337 76.952L413.129 75.912C414.446 74.872 415.85 74.04 417.341 73.416C418.866 72.792 420.253 72.48 421.501 72.48C423.165 72.48 424.396 72.9653 425.193 73.936C426.025 74.9067 426.441 76.5187 426.441 78.772V92.084C426.441 93.54 426.528 94.7187 426.701 95.62C426.909 96.4867 427.204 97.1453 427.585 97.596C428.001 98.0467 428.556 98.3413 429.249 98.48V99H419.109ZM452.471 99.728C450.148 99.728 448.224 99.156 446.699 98.012C445.208 96.8333 444.099 95.2387 443.371 93.228C442.677 91.2173 442.331 88.8947 442.331 86.26C442.331 83.764 442.695 81.476 443.423 79.396C444.185 77.2813 445.312 75.6 446.803 74.352C448.328 73.104 450.217 72.48 452.471 72.48C455.556 72.48 457.757 73.52 459.075 75.6C460.427 77.6453 461.103 80.5747 461.103 84.388H445.867L445.919 83.348H455.591C455.521 80.7827 455.365 78.7893 455.123 77.368C454.915 75.9467 454.568 74.9413 454.083 74.352C453.597 73.728 452.939 73.416 452.107 73.416C451.309 73.416 450.616 73.7453 450.027 74.404C449.437 75.0627 448.952 76.172 448.571 77.732C448.224 79.2573 448.033 81.2853 447.999 83.816L447.895 84.128V85.116C447.895 88.3747 448.345 90.888 449.247 92.656C450.148 94.3893 451.795 95.256 454.187 95.256C455.573 95.256 456.787 94.9613 457.827 94.372C458.901 93.748 459.803 92.7253 460.531 91.304L460.999 91.408C460.617 94.1813 459.681 96.2613 458.191 97.648C456.735 99.0347 454.828 99.728 452.471 99.728ZM472.85 99.988L467.754 85.532C466.68 82.4467 465.778 79.968 465.05 78.096C464.357 76.1893 463.854 75.0107 463.542 74.56C463.23 74.0747 462.866 73.7973 462.45 73.728V73.208H472.226V73.728C471.672 73.728 471.273 73.832 471.03 74.04C470.788 74.248 470.666 74.612 470.666 75.132C470.666 75.6173 470.788 76.432 471.03 77.576C471.273 78.6853 471.81 80.8173 472.642 83.972L475.19 93.592L473.422 99.988H472.85ZM473.578 96.452L474.618 93.384C475.693 90.7493 476.594 88.0627 477.322 85.324C478.085 82.5507 478.466 80.176 478.466 78.2C478.466 77.056 478.345 76.12 478.102 75.392C477.86 74.6293 477.461 74.0747 476.906 73.728V73.208H484.394V73.728C484.048 73.7973 483.684 74.1093 483.302 74.664C482.956 75.184 482.453 76.2587 481.794 77.888C481.136 79.4827 480.148 82.0307 478.83 85.532L473.422 99.988L473.578 96.452ZM495.533 99.728C493.21 99.728 491.286 99.156 489.761 98.012C488.27 96.8333 487.161 95.2387 486.433 93.228C485.74 91.2173 485.393 88.8947 485.393 86.26C485.393 83.764 485.757 81.476 486.485 79.396C487.248 77.2813 488.374 75.6 489.865 74.352C491.39 73.104 493.28 72.48 495.533 72.48C498.618 72.48 500.82 73.52 502.137 75.6C503.489 77.6453 504.165 80.5747 504.165 84.388H488.929L488.981 83.348H498.653C498.584 80.7827 498.428 78.7893 498.185 77.368C497.977 75.9467 497.63 74.9413 497.145 74.352C496.66 73.728 496.001 73.416 495.169 73.416C494.372 73.416 493.678 73.7453 493.089 74.404C492.5 75.0627 492.014 76.172 491.633 77.732C491.286 79.2573 491.096 81.2853 491.061 83.816L490.957 84.128V85.116C490.957 88.3747 491.408 90.888 492.309 92.656C493.21 94.3893 494.857 95.256 497.249 95.256C498.636 95.256 499.849 94.9613 500.889 94.372C501.964 93.748 502.865 92.7253 503.593 91.304L504.061 91.408C503.68 94.1813 502.744 96.2613 501.253 97.648C499.797 99.0347 497.89 99.728 495.533 99.728ZM506.959 99V98.48C507.653 98.3413 508.19 98.0467 508.571 97.596C508.987 97.1453 509.282 96.4867 509.455 95.62C509.663 94.7187 509.767 93.54 509.767 92.084V81.164C509.767 79.5347 509.681 78.2867 509.507 77.42C509.369 76.5533 509.091 75.9293 508.675 75.548C508.294 75.132 507.722 74.872 506.959 74.768V74.248C508.034 74.248 509.334 74.0573 510.859 73.676C512.385 73.2947 513.581 72.896 514.447 72.48H514.759L514.655 75.6L514.863 76.224V92.084C514.863 93.6787 514.915 94.892 515.019 95.724C515.123 96.556 515.331 97.1973 515.643 97.648C515.955 98.064 516.441 98.3413 517.099 98.48V99H506.959ZM520.011 99V98.48C520.67 98.3413 521.155 98.064 521.467 97.648C521.779 97.1973 521.987 96.556 522.091 95.724C522.195 94.892 522.247 93.6787 522.247 92.084V79.916C522.247 78.1827 521.97 77.0213 521.415 76.432C520.895 75.8427 519.942 75.548 518.555 75.548C517.099 75.548 515.661 76.016 514.239 76.952L514.031 75.912C515.349 74.872 516.753 74.04 518.243 73.416C519.769 72.792 521.155 72.48 522.403 72.48C524.067 72.48 525.298 72.9653 526.095 73.936C526.927 74.9067 527.343 76.5187 527.343 78.772V92.084C527.343 93.54 527.43 94.7187 527.603 95.62C527.811 96.4867 528.106 97.1453 528.487 97.596C528.903 98.0467 529.458 98.3413 530.151 98.48V99H520.011ZM552.957 99.728C552.16 99.728 551.449 99.624 550.825 99.416C550.201 99.2427 549.525 99 548.797 98.688C547.896 98.3067 547.254 98.116 546.873 98.116C546.11 98.116 545.452 98.4453 544.897 99.104H544.481V70.192C544.481 68.5627 544.394 67.3667 544.221 66.604C544.082 65.8067 543.822 65.252 543.441 64.94C543.06 64.628 542.47 64.42 541.673 64.316V63.796C542.817 63.796 544.1 63.64 545.521 63.328C546.977 63.016 548.242 62.6173 549.317 62.132H549.577V92.604C549.577 94.7533 549.872 96.244 550.461 97.076C551.085 97.8733 551.986 98.272 553.165 98.272C554.066 98.272 554.881 97.8733 555.609 97.076C556.337 96.2787 556.926 94.9787 557.377 93.176C557.828 91.3387 558.053 88.9467 558.053 86C558.053 82.9147 557.862 80.5227 557.481 78.824C557.134 77.0907 556.614 75.912 555.921 75.288C555.262 74.6293 554.43 74.3 553.425 74.3C552.662 74.3 551.917 74.4907 551.189 74.872C550.461 75.2187 549.872 75.6693 549.421 76.224L549.369 74.976C550.097 74.2133 550.964 73.6067 551.969 73.156C553.009 72.7053 554.049 72.48 555.089 72.48C558.105 72.48 560.289 73.572 561.641 75.756C563.028 77.9053 563.721 80.904 563.721 84.752C563.721 89.0853 562.837 92.6733 561.069 95.516C559.301 98.324 556.597 99.728 552.957 99.728ZM577.443 99.728C575.12 99.728 573.196 99.156 571.671 98.012C570.18 96.8333 569.071 95.2387 568.343 93.228C567.65 91.2173 567.303 88.8947 567.303 86.26C567.303 83.764 567.667 81.476 568.395 79.396C569.158 77.2813 570.284 75.6 571.775 74.352C573.3 73.104 575.19 72.48 577.443 72.48C580.528 72.48 582.73 73.52 584.047 75.6C585.399 77.6453 586.075 80.5747 586.075 84.388H570.839L570.891 83.348H580.563C580.494 80.7827 580.338 78.7893 580.095 77.368C579.887 75.9467 579.54 74.9413 579.055 74.352C578.57 73.728 577.911 73.416 577.079 73.416C576.282 73.416 575.588 73.7453 574.999 74.404C574.41 75.0627 573.924 76.172 573.543 77.732C573.196 79.2573 573.006 81.2853 572.971 83.816L572.867 84.128V85.116C572.867 88.3747 573.318 90.888 574.219 92.656C575.12 94.3893 576.767 95.256 579.159 95.256C580.546 95.256 581.759 94.9613 582.799 94.372C583.874 93.748 584.775 92.7253 585.503 91.304L585.971 91.408C585.59 94.1813 584.654 96.2613 583.163 97.648C581.707 99.0347 579.8 99.728 577.443 99.728ZM588.817 74.82C591.625 72.6013 593.896 69.932 595.629 66.812H596.149V73.52H602.857V74.144L601.297 75.34H596.149V92.864C596.149 94.2507 596.357 95.2387 596.773 95.828C597.189 96.3827 597.9 96.66 598.905 96.66C599.633 96.66 600.275 96.4693 600.829 96.088C601.384 95.7067 601.835 95.0827 602.181 94.216L602.597 94.32C602.389 96.192 601.748 97.5613 600.673 98.428C599.599 99.2947 598.316 99.728 596.825 99.728C594.919 99.728 593.48 99.208 592.509 98.168C591.539 97.0933 591.053 95.3947 591.053 93.072V75.34H588.817V74.82ZM604.103 74.82C606.911 72.6013 609.181 69.932 610.915 66.812H611.435V73.52H618.143V74.144L616.583 75.34H611.435V92.864C611.435 94.2507 611.643 95.2387 612.059 95.828C612.475 96.3827 613.185 96.66 614.191 96.66C614.919 96.66 615.56 96.4693 616.115 96.088C616.669 95.7067 617.12 95.0827 617.467 94.216L617.883 94.32C617.675 96.192 617.033 97.5613 615.959 98.428C614.884 99.2947 613.601 99.728 612.111 99.728C610.204 99.728 608.765 99.208 607.795 98.168C606.824 97.0933 606.339 95.3947 606.339 93.072V75.34H604.103V74.82ZM629.849 99.728C627.527 99.728 625.603 99.156 624.077 98.012C622.587 96.8333 621.477 95.2387 620.749 93.228C620.056 91.2173 619.709 88.8947 619.709 86.26C619.709 83.764 620.073 81.476 620.801 79.396C621.564 77.2813 622.691 75.6 624.181 74.352C625.707 73.104 627.596 72.48 629.849 72.48C632.935 72.48 635.136 73.52 636.453 75.6C637.805 77.6453 638.481 80.5747 638.481 84.388H623.245L623.297 83.348H632.969C632.9 80.7827 632.744 78.7893 632.501 77.368C632.293 75.9467 631.947 74.9413 631.461 74.352C630.976 73.728 630.317 73.416 629.485 73.416C628.688 73.416 627.995 73.7453 627.405 74.404C626.816 75.0627 626.331 76.172 625.949 77.732C625.603 79.2573 625.412 81.2853 625.377 83.816L625.273 84.128V85.116C625.273 88.3747 625.724 90.888 626.625 92.656C627.527 94.3893 629.173 95.256 631.565 95.256C632.952 95.256 634.165 94.9613 635.205 94.372C636.28 93.748 637.181 92.7253 637.909 91.304L638.377 91.408C637.996 94.1813 637.06 96.2613 635.569 97.648C634.113 99.0347 632.207 99.728 629.849 99.728ZM641.276 99V98.48C641.969 98.3413 642.524 98.0467 642.94 97.596C643.356 97.1453 643.65 96.4867 643.824 95.62C643.997 94.7533 644.084 93.5747 644.084 92.084V81.164C644.084 79.5 643.997 78.252 643.824 77.42C643.685 76.5533 643.425 75.9293 643.044 75.548C642.662 75.132 642.073 74.872 641.276 74.768V74.248C642.35 74.248 643.65 74.0573 645.176 73.676C646.701 73.2947 647.914 72.896 648.816 72.48H649.076L648.972 77.16L649.18 77.784V92.084C649.18 93.644 649.266 94.84 649.44 95.672C649.613 96.504 649.925 97.1453 650.376 97.596C650.861 98.0467 651.572 98.3413 652.508 98.48V99H641.276ZM648.14 77.524C648.868 76.38 649.544 75.4787 650.168 74.82C650.792 74.1267 651.589 73.572 652.56 73.156C653.53 72.7053 654.744 72.48 656.2 72.48L655.524 77.472C654.865 77.1253 654.154 76.848 653.392 76.64C652.664 76.432 652.092 76.328 651.676 76.328C650.948 76.328 650.393 76.484 650.012 76.796C649.665 77.0733 649.44 77.524 649.336 78.148C649.232 78.7373 649.18 79.6213 649.18 80.8L648.14 77.524ZM667.376 74.82C670.184 72.6013 672.455 69.932 674.188 66.812H674.708V73.52H681.416V74.144L679.856 75.34H674.708V92.864C674.708 94.2507 674.916 95.2387 675.332 95.828C675.748 96.3827 676.459 96.66 677.464 96.66C678.192 96.66 678.833 96.4693 679.388 96.088C679.943 95.7067 680.393 95.0827 680.74 94.216L681.156 94.32C680.948 96.192 680.307 97.5613 679.232 98.428C678.157 99.2947 676.875 99.728 675.384 99.728C673.477 99.728 672.039 99.208 671.068 98.168C670.097 97.0933 669.612 95.3947 669.612 93.072V75.34H667.376V74.82ZM682.453 99V98.48C683.216 98.3413 683.788 98.0987 684.169 97.752C684.55 97.3707 684.828 96.6773 685.001 95.672C685.174 94.632 685.261 93.0547 685.261 90.94V70.192C685.261 68.5627 685.174 67.3667 685.001 66.604C684.862 65.8067 684.602 65.252 684.221 64.94C683.84 64.628 683.25 64.42 682.453 64.316V63.796C683.597 63.796 684.88 63.64 686.301 63.328C687.757 63.016 689.022 62.6173 690.097 62.132H690.357V90.94C690.357 93.0547 690.444 94.632 690.617 95.672C690.79 96.6773 691.068 97.3707 691.449 97.752C691.83 98.0987 692.402 98.3413 693.165 98.48V99H682.453ZM694.933 99V98.48C695.696 98.3413 696.268 98.0987 696.649 97.752C697.03 97.3707 697.308 96.6773 697.481 95.672C697.654 94.632 697.741 93.0547 697.741 90.94V80.332C697.741 78.564 697.464 77.3333 696.909 76.64C696.354 75.912 695.401 75.548 694.049 75.548C693.286 75.548 692.541 75.6867 691.813 75.964C691.085 76.2067 690.392 76.536 689.733 76.952L689.525 75.912C690.842 74.872 692.246 74.04 693.737 73.416C695.262 72.792 696.649 72.48 697.897 72.48C699.561 72.48 700.792 72.9653 701.589 73.936C702.421 74.9067 702.837 76.5187 702.837 78.772V90.94C702.837 93.0547 702.924 94.632 703.097 95.672C703.27 96.6773 703.548 97.3707 703.929 97.752C704.31 98.0987 704.882 98.3413 705.645 98.48V99H694.933ZM712.694 71.076C711.689 71.076 710.84 70.7467 710.146 70.088C709.488 69.4293 709.158 68.5973 709.158 67.592C709.158 66.6213 709.488 65.8067 710.146 65.148C710.84 64.4547 711.689 64.108 712.694 64.108C713.665 64.108 714.497 64.4547 715.19 65.148C715.884 65.8067 716.23 66.6213 716.23 67.592C716.23 68.5627 715.884 69.3947 715.19 70.088C714.532 70.7467 713.7 71.076 712.694 71.076ZM715.398 90.94C715.398 93.0547 715.485 94.632 715.658 95.672C715.832 96.6773 716.109 97.3707 716.49 97.752C716.872 98.0987 717.444 98.3413 718.206 98.48V99H707.494V98.48C708.257 98.3413 708.829 98.0987 709.21 97.752C709.592 97.3707 709.869 96.6773 710.042 95.672C710.216 94.632 710.302 93.0547 710.302 90.94V81.164C710.302 79.5 710.216 78.252 710.042 77.42C709.904 76.5533 709.644 75.9293 709.262 75.548C708.881 75.132 708.292 74.872 707.494 74.768V74.248C708.569 74.248 709.886 74.0573 711.446 73.676C713.006 73.2947 714.237 72.896 715.138 72.48H715.398V90.94ZM720.139 99V98.48C720.832 98.3413 721.37 98.0467 721.751 97.596C722.167 97.1453 722.462 96.4867 722.635 95.62C722.843 94.7187 722.947 93.54 722.947 92.084V81.164C722.947 79.5347 722.86 78.2867 722.687 77.42C722.548 76.5533 722.271 75.9293 721.855 75.548C721.474 75.132 720.902 74.872 720.139 74.768V74.248C721.214 74.248 722.514 74.0573 724.039 73.676C725.564 73.2947 726.76 72.896 727.627 72.48H727.939L727.835 75.6L728.043 76.224V92.084C728.043 93.6787 728.095 94.892 728.199 95.724C728.303 96.556 728.511 97.1973 728.823 97.648C729.135 98.064 729.62 98.3413 730.279 98.48V99H720.139ZM733.191 99V98.48C733.85 98.3413 734.335 98.064 734.647 97.648C734.959 97.1973 735.167 96.556 735.271 95.724C735.375 94.892 735.427 93.6787 735.427 92.084V79.916C735.427 78.1827 735.15 77.0213 734.595 76.432C734.075 75.8427 733.122 75.548 731.735 75.548C730.279 75.548 728.84 76.016 727.419 76.952L727.211 75.912C728.528 74.872 729.932 74.04 731.423 73.416C732.948 72.792 734.335 72.48 735.583 72.48C737.247 72.48 738.478 72.9653 739.275 73.936C740.107 74.9067 740.523 76.5187 740.523 78.772V92.084C740.523 93.54 740.61 94.7187 740.783 95.62C740.991 96.4867 741.286 97.1453 741.667 97.596C742.083 98.0467 742.638 98.3413 743.331 98.48V99H733.191ZM755.001 109.4C753.094 109.4 751.43 108.828 750.009 107.684C748.622 106.54 747.703 104.893 747.253 102.744L747.669 102.536C748.57 103.645 749.627 104.443 750.841 104.928C752.054 105.413 753.25 105.656 754.429 105.656C756.231 105.656 757.618 105.171 758.589 104.2C759.559 103.229 760.045 101.652 760.045 99.468V74.352C760.877 74.04 761.709 73.728 762.541 73.416C763.407 73.104 764.205 72.792 764.933 72.48L765.401 72.792C765.297 73.9013 765.227 75.0107 765.193 76.12C765.158 77.2293 765.141 78.876 765.141 81.06V97.18C765.141 100.959 764.343 103.94 762.749 106.124C761.189 108.308 758.606 109.4 755.001 109.4ZM754.117 99.728C751.551 99.728 749.541 98.7227 748.085 96.712C746.663 94.7013 745.953 91.8413 745.953 88.132C745.953 85.0813 746.299 82.3947 746.993 80.072C747.721 77.7147 748.83 75.86 750.321 74.508C751.846 73.156 753.753 72.48 756.041 72.48C757.011 72.48 757.965 72.7053 758.901 73.156C759.837 73.6067 760.478 74.3 760.825 75.236L760.461 75.964C760.114 75.2707 759.525 74.7507 758.693 74.404C757.895 74.0227 757.167 73.832 756.509 73.832C754.671 73.832 753.371 74.8547 752.609 76.9C751.881 78.9453 751.517 82.0653 751.517 86.26C751.517 89.9 751.898 92.656 752.661 94.528C753.423 96.4 754.706 97.336 756.509 97.336C757.445 97.336 758.259 97.0067 758.953 96.348C759.681 95.6893 760.045 94.6667 760.045 93.28L760.461 95.568C759.941 96.92 759.109 97.96 757.965 98.688C756.855 99.3813 755.573 99.728 754.117 99.728ZM773.666 99.52C772.695 99.52 771.863 99.1733 771.17 98.48C770.476 97.7867 770.13 96.9373 770.13 95.932C770.13 94.892 770.476 94.0253 771.17 93.332C771.863 92.6387 772.747 92.292 773.822 92.292C774.862 92.292 775.728 92.6387 776.422 93.332C777.115 94.0253 777.462 94.892 777.462 95.932C777.462 96.9373 777.115 97.7867 776.422 98.48C775.728 99.1733 774.81 99.52 773.666 99.52Z" fill="#C80F2E"/>
</svg>
