<svg xmlns="http://www.w3.org/2000/svg" width="240" height="128" fill="none"><path fill="#C80F2E" d="M10.324 20v-.28c.523-.075.887-.224 1.092-.448.205-.243.308-.616.308-1.12 0-.467-.345-1.727-1.036-3.78L7.636 5.216 8.812.736h.336l4.508 13.328c.485 1.419.887 2.51 1.204 3.276.317.765.616 1.335.896 1.708.28.355.597.579.952.672V20h-6.384ZM.776 20v-.28a2.26 2.26 0 0 0 1.036-.644c.317-.336.653-.877 1.008-1.624.355-.747.775-1.81 1.26-3.192L8.812.736h.336l-.98 4.424C7.123 7.997 6.367 10.135 5.9 11.572c-.467 1.437-.775 2.53-.924 3.276-.13.747-.196 1.521-.196 2.324 0 .896.168 1.54.504 1.932.355.373.756.579 1.204.616V20H.776Zm4.116-5.992v-.952h7.532v.952H4.892Zm16.878 6.384c-1.38 0-2.463-.541-3.247-1.624-.766-1.083-1.148-2.623-1.148-4.62 0-1.643.186-3.09.56-4.34.392-1.27.989-2.268 1.792-2.996.82-.728 1.848-1.092 3.08-1.092.522 0 1.036.121 1.54.364.503.243.849.616 1.035 1.12l-.196.392c-.186-.373-.503-.653-.951-.84-.43-.205-.822-.308-1.177-.308-.989 0-1.689.55-2.1 1.652-.391 1.101-.587 2.781-.587 5.04 0 1.96.205 3.444.616 4.452.41 1.008 1.1 1.512 2.072 1.512.503 0 .942-.177 1.316-.532.392-.355.587-.905.587-1.652l.224 1.232c-.28.728-.727 1.288-1.343 1.68-.598.373-1.288.56-2.073.56Zm3.556 0-.28-2.408-.084-.056V4.488c0-.877-.046-1.521-.14-1.932-.074-.43-.214-.728-.42-.896-.205-.168-.522-.28-.951-.336v-.28c.616 0 1.306-.084 2.072-.252.784-.168 1.465-.383 2.044-.644h.14V15.94c0 .896.037 1.577.111 2.044.094.448.243.784.448 1.008.206.205.523.336.953.392v.28c-.617 0-1.28.075-1.989.224-.709.13-1.26.299-1.652.504h-.252Zm9.57 0c-1.382 0-2.465-.541-3.248-1.624-.766-1.083-1.148-2.623-1.148-4.62 0-1.643.186-3.09.56-4.34.392-1.27.989-2.268 1.792-2.996.82-.728 1.848-1.092 3.08-1.092.522 0 1.035.121 1.54.364.503.243.849.616 1.035 1.12l-.195.392c-.187-.373-.505-.653-.953-.84-.429-.205-.82-.308-1.175-.308-.99 0-1.69.55-2.1 1.652-.393 1.101-.589 2.781-.589 5.04 0 1.96.206 3.444.617 4.452.41 1.008 1.1 1.512 2.072 1.512.504 0 .942-.177 1.316-.532.392-.355.587-.905.587-1.652l.224 1.232c-.28.728-.727 1.288-1.343 1.68-.598.373-1.289.56-2.073.56Zm3.556 0-.28-2.408-.084-.056V4.488c0-.877-.047-1.521-.14-1.932-.075-.43-.215-.728-.42-.896-.206-.168-.523-.28-.953-.336v-.28c.616 0 1.307-.084 2.072-.252.785-.168 1.466-.383 2.044-.644h.14V15.94c0 .896.038 1.577.112 2.044.094.448.243.784.449 1.008.205.205.522.336.951.392v.28c-.616 0-1.278.075-1.988.224-.709.13-1.26.299-1.651.504h-.252Zm19.485 0c-.71 0-1.195-.215-1.456-.644-.243-.448-.402-.97-.476-1.568l-.056-.28-.14-.056V10.9c0-1.213-.196-2.081-.588-2.604-.392-.523-1.083-.784-2.072-.784-.672 0-1.279.13-1.82.392-.523.243-1.027.625-1.512 1.148l-.28-.196c.093-.504.364-.999.812-1.484a5.03 5.03 0 0 1 1.68-1.176 4.862 4.862 0 0 1 2.1-.476c1.437 0 2.529.364 3.276 1.092.765.71 1.148 1.839 1.148 3.388v7.028c0 .41.065.737.196.98.13.243.401.364.812.364.186 0 .317-.01.392-.028l.084.112c-.112.597-.355 1.036-.728 1.316-.355.28-.812.42-1.372.42Zm-5.46 0c-1.064 0-1.886-.364-2.464-1.092-.579-.728-.868-1.633-.868-2.716 0-1.027.196-1.867.588-2.52.41-.653 1.101-1.195 2.072-1.624.989-.448 2.38-.84 4.172-1.176v.448c-1.064.243-1.876.55-2.436.924-.542.373-.915.83-1.12 1.372-.187.541-.28 1.232-.28 2.072 0 .99.177 1.745.532 2.268.373.504.812.756 1.316.756.578 0 1.026-.196 1.344-.588.317-.392.476-1.055.476-1.988l.392 1.26c-.336.952-.85 1.624-1.54 2.016a4.26 4.26 0 0 1-2.184.588Zm19.816 0c-.429 0-.812-.056-1.148-.168a8.72 8.72 0 0 1-1.091-.392c-.486-.205-.831-.308-1.037-.308-.41 0-.765.177-1.063.532h-.224V4.488c0-.877-.047-1.521-.14-1.932-.075-.43-.215-.728-.42-.896-.206-.168-.523-.28-.953-.336v-.28c.617 0 1.307-.084 2.073-.252.783-.168 1.465-.383 2.043-.644h.14v16.408c0 1.157.16 1.96.477 2.408.335.43.82.644 1.456.644.485 0 .923-.215 1.316-.644.392-.43.709-1.13.952-2.1.242-.99.363-2.277.363-3.864 0-1.661-.102-2.95-.308-3.864-.186-.933-.466-1.568-.84-1.904-.354-.355-.802-.532-1.343-.532-.411 0-.813.103-1.205.308-.391.187-.709.43-.951.728l-.028-.672a4.4 4.4 0 0 1 1.4-.98 4.195 4.195 0 0 1 1.68-.364c1.624 0 2.8.588 3.528 1.764.746 1.157 1.12 2.772 1.12 4.844 0 2.333-.477 4.265-1.428 5.796-.953 1.512-2.409 2.268-4.369 2.268ZM82.454 4.964c-.54 0-.998-.177-1.372-.532-.354-.355-.532-.803-.532-1.344 0-.523.178-.961.532-1.316.374-.373.831-.56 1.372-.56.523 0 .971.187 1.344.56.374.355.56.793.56 1.316s-.186.97-.56 1.344c-.354.355-.802.532-1.344.532ZM83.91 15.66c0 1.139.047 1.988.14 2.548.094.541.243.915.448 1.12.206.187.514.317.924.392V20h-5.768v-.28c.411-.075.72-.205.924-.392.206-.205.355-.579.448-1.12.094-.56.14-1.41.14-2.548v-5.264c0-.896-.046-1.568-.14-2.016-.074-.467-.214-.803-.42-1.008-.205-.224-.522-.364-.952-.42v-.28c.58 0 1.288-.103 2.128-.308.84-.205 1.503-.42 1.988-.644h.14v9.94Zm2.525-8.68a14.286 14.286 0 0 0 3.668-4.312h.28V6.28h3.612v.336l-.84.644h-2.772v9.436c0 .747.112 1.279.336 1.596.224.299.607.448 1.148.448.392 0 .737-.103 1.036-.308.299-.205.541-.541.728-1.008l.224.056c-.112 1.008-.457 1.745-1.036 2.212-.579.467-1.27.7-2.072.7-1.027 0-1.801-.28-2.324-.84-.523-.579-.784-1.493-.784-2.744V7.26h-1.204v-.28Zm19.995 13.412c-2.072 0-3.547-.672-4.424-2.016-.859-1.344-1.288-3.07-1.288-5.18 0-2.184.457-3.976 1.372-5.376.933-1.4 2.38-2.1 4.34-2.1 2.053 0 3.518.681 4.396 2.044.877 1.363 1.316 3.099 1.316 5.208 0 2.165-.467 3.948-1.4 5.348-.915 1.381-2.352 2.072-4.312 2.072Zm.056-.644c.578 0 1.054-.196 1.428-.588.392-.392.69-1.073.896-2.044.224-.99.336-2.333.336-4.032 0-2.203-.234-3.873-.7-5.012-.467-1.139-1.158-1.708-2.072-1.708-.579 0-1.064.205-1.456.616-.374.392-.672 1.083-.896 2.072-.206.99-.308 2.333-.308 4.032 0 2.203.233 3.864.7 4.984.466 1.12 1.157 1.68 2.072 1.68Zm7.184.252v-.28c.373-.075.672-.233.896-.476.224-.243.383-.597.476-1.064.093-.467.14-1.101.14-1.904V7.708h-1.372v-.28c.541-.28.915-.588 1.12-.924.205-.355.401-.97.588-1.848.317-1.456.756-2.53 1.316-3.22.579-.69 1.512-1.036 2.8-1.036.803 0 1.521.205 2.156.616.635.392.952.99.952 1.792l-.028.28-1.988.644v-.42c-.037-.84-.159-1.447-.364-1.82-.187-.373-.513-.56-.98-.56-.523 0-.896.261-1.12.784-.224.504-.336 1.297-.336 2.38v2.632h3.808v.28l-.868.7h-2.94v8.568c0 .84.047 1.484.14 1.932.093.448.261.793.504 1.036.261.243.644.401 1.148.476V20h-6.048Zm13.535 0v-.28c.374-.075.672-.233.896-.476.224-.243.383-.597.476-1.064.094-.467.14-1.101.14-1.904V7.708h-1.372v-.28c.374-.205.654-.41.84-.616a2.08 2.08 0 0 0 .476-.756c.112-.317.243-.784.392-1.4.318-1.437.878-2.501 1.68-3.192.803-.69 1.914-1.036 3.332-1.036 1.27 0 2.24.261 2.912.784.672.504 1.008 1.139 1.008 1.904l-2.324.644c0-.915-.149-1.615-.448-2.1-.28-.485-.784-.728-1.512-.728-.896 0-1.493.261-1.792.784-.298.523-.448 1.316-.448 2.38v2.632h3.36v.364l-.896.616h-2.464v8.568c0 .859.028 1.512.084 1.96.075.448.206.793.392 1.036.187.224.486.373.896.448V20h-5.628Zm6.944 0v-.28c.411-.075.719-.205.924-.392.206-.205.355-.579.448-1.12.094-.56.14-1.41.14-2.548V.876c.971-.15 1.839-.392 2.604-.728h.14V15.66c0 1.139.047 1.988.14 2.548.112.541.271.905.476 1.092.224.187.551.327.98.42V20h-5.852Zm15.881.392c-.709 0-1.194-.215-1.456-.644-.242-.448-.401-.97-.476-1.568a27.717 27.717 0 0 0-.056-.28l-.14-.056V10.9c0-1.213-.196-2.081-.588-2.604-.392-.523-1.082-.784-2.072-.784-.672 0-1.278.13-1.82.392-.522.243-1.026.625-1.512 1.148l-.28-.196c.094-.504.364-.999.812-1.484a5.03 5.03 0 0 1 1.68-1.176 4.862 4.862 0 0 1 2.1-.476c1.438 0 2.53.364 3.276 1.092.766.71 1.148 1.839 1.148 3.388v7.028c0 .41.066.737.196.98.131.243.402.364.812.364.187 0 .318-.01.392-.028l.084.112c-.112.597-.354 1.036-.728 1.316-.354.28-.812.42-1.372.42Zm-5.46 0c-1.064 0-1.885-.364-2.464-1.092-.578-.728-.868-1.633-.868-2.716 0-1.027.196-1.867.588-2.52.411-.653 1.102-1.195 2.072-1.624.99-.448 2.38-.84 4.172-1.176v.448c-1.064.243-1.876.55-2.436.924-.541.373-.914.83-1.12 1.372-.186.541-.28 1.232-.28 2.072 0 .99.178 1.745.532 2.268.374.504.812.756 1.316.756.579 0 1.027-.196 1.344-.588.318-.392.476-1.055.476-1.988l.392 1.26c-.336.952-.849 1.624-1.54 2.016a4.26 4.26 0 0 1-2.184.588Zm13.214.14-2.744-7.784a123.094 123.094 0 0 0-1.456-4.004c-.373-1.027-.644-1.661-.812-1.904-.168-.261-.364-.41-.588-.448v-.28h5.264v.28c-.298 0-.513.056-.644.168-.13.112-.196.308-.196.588 0 .261.066.7.196 1.316.131.597.42 1.745.868 3.444l1.372 5.18-.952 3.444h-.308Zm.392-1.904.56-1.652a35.84 35.84 0 0 0 1.456-4.34c.411-1.493.616-2.772.616-3.836 0-.616-.065-1.12-.196-1.512-.13-.41-.345-.71-.644-.896v-.28H164v.28c-.186.037-.382.205-.588.504-.186.28-.457.859-.812 1.736-.354.859-.886 2.23-1.596 4.116l-2.912 7.784.084-1.904Zm12.074 1.764c-2.072 0-3.547-.672-4.424-2.016-.859-1.344-1.288-3.07-1.288-5.18 0-2.184.457-3.976 1.372-5.376.933-1.4 2.38-2.1 4.34-2.1 2.053 0 3.519.681 4.396 2.044.877 1.363 1.316 3.099 1.316 5.208 0 2.165-.467 3.948-1.4 5.348-.915 1.381-2.352 2.072-4.312 2.072Zm.056-.644c.579 0 1.055-.196 1.428-.588.392-.392.691-1.073.896-2.044.224-.99.336-2.333.336-4.032 0-2.203-.233-3.873-.7-5.012-.467-1.139-1.157-1.708-2.072-1.708-.579 0-1.064.205-1.456.616-.373.392-.672 1.083-.896 2.072-.205.99-.308 2.333-.308 4.032 0 2.203.233 3.864.7 4.984.467 1.12 1.157 1.68 2.072 1.68Zm7.184.252v-.28c.374-.075.672-.233.896-.476.224-.243.383-.597.476-1.064.094-.467.14-1.101.14-1.904v-5.88c0-.896-.046-1.568-.14-2.016-.074-.467-.214-.803-.42-1.008-.205-.224-.522-.364-.952-.42v-.28c.579 0 1.279-.103 2.1-.308.822-.205 1.475-.42 1.96-.644h.14l-.056 2.52.112.336v7.7c0 .84.047 1.484.14 1.932.094.448.262.793.504 1.036.262.243.644.401 1.148.476V20h-6.048Zm3.696-11.564c.392-.616.756-1.101 1.092-1.456a3.626 3.626 0 0 1 1.288-.896c.523-.243 1.176-.364 1.96-.364l-.364 2.688a5.622 5.622 0 0 0-1.148-.448c-.392-.112-.7-.168-.924-.168-.392 0-.69.084-.896.252-.186.15-.308.392-.364.728-.056.317-.084.793-.084 1.428l-.56-1.764Zm8.073-3.472c-.541 0-.999-.177-1.372-.532-.355-.355-.532-.803-.532-1.344 0-.523.177-.961.532-1.316.373-.373.831-.56 1.372-.56.523 0 .971.187 1.344.56.373.355.56.793.56 1.316s-.187.97-.56 1.344c-.355.355-.803.532-1.344.532Zm1.456 10.696c0 1.139.047 1.988.14 2.548.093.541.243.915.448 1.12.205.187.513.317.924.392V20h-5.768v-.28c.411-.075.719-.205.924-.392.205-.205.355-.579.448-1.12.093-.56.14-1.41.14-2.548v-5.264c0-.896-.047-1.568-.14-2.016-.075-.467-.215-.803-.42-1.008-.205-.224-.523-.364-.952-.42v-.28c.579 0 1.288-.103 2.128-.308.84-.205 1.503-.42 1.988-.644h.14v9.94Zm2.553 4.34v-.28c.373-.075.662-.233.868-.476.224-.243.382-.597.476-1.064.112-.485.168-1.12.168-1.904v-5.88c0-.877-.047-1.55-.14-2.016-.075-.467-.224-.803-.448-1.008-.206-.224-.514-.364-.924-.42v-.28c.578 0 1.278-.103 2.1-.308.821-.205 1.465-.42 1.932-.644h.168l-.056 1.68.112.336v8.54c0 .859.028 1.512.084 1.96.056.448.168.793.336 1.036.168.224.429.373.784.448V20h-5.46Zm7.028 0v-.28c.354-.075.616-.224.784-.448.168-.243.28-.588.336-1.036.056-.448.084-1.101.084-1.96V9.724c0-.933-.15-1.559-.448-1.876-.28-.317-.794-.476-1.54-.476-.784 0-1.559.252-2.324.756l-.112-.56a9.672 9.672 0 0 1 2.268-1.344c.821-.336 1.568-.504 2.24-.504.896 0 1.558.261 1.988.784.448.523.672 1.39.672 2.604v7.168c0 .784.046 1.419.14 1.904.112.467.27.821.476 1.064.224.243.522.401.896.476V20h-5.46Zm11.744 5.6c-1.027 0-1.923-.308-2.688-.924-.747-.616-1.242-1.503-1.484-2.66l.224-.112c.485.597 1.054 1.027 1.708 1.288a5.174 5.174 0 0 0 1.932.392c.97 0 1.717-.261 2.24-.784.522-.523.784-1.372.784-2.548V6.728l1.344-.504c.466-.168.896-.336 1.288-.504l.252.168a28.341 28.341 0 0 0-.112 1.792 91.518 91.518 0 0 0-.028 2.66v8.68c0 2.035-.43 3.64-1.288 4.816-.84 1.176-2.231 1.764-4.172 1.764Zm-.476-5.208c-1.382 0-2.464-.541-3.248-1.624-.766-1.083-1.148-2.623-1.148-4.62 0-1.643.186-3.09.56-4.34.392-1.27.989-2.268 1.792-2.996.821-.728 1.848-1.092 3.08-1.092.522 0 1.036.121 1.54.364s.849.616 1.036 1.12l-.196.392c-.187-.373-.504-.653-.952-.84-.43-.205-.822-.308-1.176-.308-.99 0-1.69.55-2.1 1.652-.392 1.101-.588 2.781-.588 5.04 0 1.96.205 3.444.616 4.452.41 1.008 1.101 1.512 2.072 1.512a1.85 1.85 0 0 0 1.316-.532c.392-.355.588-.905.588-1.652l.224 1.232c-.28.728-.728 1.288-1.344 1.68-.598.373-1.288.56-2.072.56ZM1.56 40.98a14.287 14.287 0 0 0 3.668-4.312h.28v3.612H9.12v.336l-.84.644H5.508v9.436c0 .747.112 1.279.336 1.596.224.299.607.448 1.148.448.392 0 .737-.103 1.036-.308.299-.205.541-.541.728-1.008l.224.056c-.112 1.008-.457 1.745-1.036 2.212-.579.467-1.27.7-2.072.7-1.027 0-1.801-.28-2.324-.84-.523-.579-.784-1.493-.784-2.744V41.26H1.56v-.28Zm14.116 13.412c-2.072 0-3.547-.672-4.424-2.016-.859-1.344-1.288-3.07-1.288-5.18 0-2.184.457-3.976 1.372-5.376.933-1.4 2.38-2.1 4.34-2.1 2.053 0 3.518.681 4.396 2.044.877 1.363 1.316 3.099 1.316 5.208 0 2.165-.467 3.948-1.4 5.348-.915 1.381-2.352 2.072-4.312 2.072Zm.056-.644c.578 0 1.054-.196 1.428-.588.392-.392.69-1.073.896-2.044.224-.99.336-2.333.336-4.032 0-2.203-.234-3.873-.7-5.012-.467-1.139-1.158-1.708-2.072-1.708-.579 0-1.064.205-1.456.616-.374.392-.672 1.083-.896 2.072-.206.99-.308 2.333-.308 4.032 0 2.203.233 3.864.7 4.984.466 1.12 1.157 1.68 2.072 1.68ZM28.548 40.98a14.288 14.288 0 0 0 3.668-4.312h.28v3.612h3.612v.336l-.84.644h-2.772v9.436c0 .747.112 1.279.336 1.596.224.299.607.448 1.148.448.392 0 .738-.103 1.036-.308.299-.205.542-.541.728-1.008l.224.056c-.112 1.008-.457 1.745-1.036 2.212-.578.467-1.27.7-2.072.7-1.026 0-1.801-.28-2.324-.84-.522-.579-.784-1.493-.784-2.744V41.26h-1.204v-.28ZM36.667 54v-.28c.41-.075.718-.205.924-.392.205-.205.354-.579.448-1.12.093-.56.14-1.41.14-2.548V38.488c0-.877-.047-1.521-.14-1.932-.075-.43-.215-.728-.42-.896-.206-.168-.523-.28-.952-.336v-.28c.616 0 1.306-.084 2.072-.252.784-.168 1.465-.383 2.044-.644h.14V49.66c0 1.139.046 1.988.14 2.548.093.541.242.915.448 1.12.205.187.513.317.924.392V54h-5.768Zm6.72 0v-.28c.41-.075.718-.205.924-.392.205-.205.354-.579.448-1.12.093-.56.14-1.41.14-2.548v-5.712c0-.952-.15-1.615-.448-1.988-.299-.392-.812-.588-1.54-.588-.41 0-.812.075-1.204.224-.392.13-.766.308-1.12.532l-.112-.56a9.684 9.684 0 0 1 2.268-1.344c.821-.336 1.568-.504 2.24-.504.896 0 1.558.261 1.988.784.448.523.672 1.39.672 2.604v6.552c0 1.139.046 1.988.14 2.548.093.541.242.915.448 1.12.205.187.513.317.924.392V54h-5.768Zm12.84.392c-2.072 0-3.547-.672-4.424-2.016-.86-1.344-1.288-3.07-1.288-5.18 0-2.184.457-3.976 1.371-5.376.934-1.4 2.38-2.1 4.34-2.1 2.054 0 3.52.681 4.397 2.044.877 1.363 1.316 3.099 1.316 5.208 0 2.165-.467 3.948-1.4 5.348-.915 1.381-2.352 2.072-4.313 2.072Zm.056-.644c.578 0 1.054-.196 1.428-.588.392-.392.69-1.073.895-2.044.224-.99.337-2.333.337-4.032 0-2.203-.234-3.873-.7-5.012-.467-1.139-1.158-1.708-2.073-1.708-.578 0-1.064.205-1.456.616-.373.392-.672 1.083-.895 2.072-.206.99-.309 2.333-.309 4.032 0 2.203.234 3.864.7 4.984.467 1.12 1.158 1.68 2.072 1.68Zm11.944.616c-1.325 0-2.39-.27-3.192-.812-.803-.541-1.204-1.279-1.204-2.212 0-.355.065-.728.196-1.12l2.212-.756c-.13.504-.196.97-.196 1.4 0 .915.215 1.633.644 2.156.43.523 1.045.784 1.848.784.672 0 1.232-.187 1.68-.56.448-.373.672-.99.672-1.848 0-.765-.205-1.372-.616-1.82-.392-.448-1.12-.868-2.184-1.26-1.493-.541-2.567-1.167-3.22-1.876-.653-.71-.98-1.577-.98-2.604 0-.765.177-1.456.532-2.072.373-.635.915-1.13 1.624-1.484.71-.373 1.577-.56 2.604-.56 1.195 0 2.175.233 2.94.7.784.448 1.176 1.083 1.176 1.904 0 .355-.065.7-.196 1.036l-2.044.672c.093-.355.14-.681.14-.98 0-.896-.196-1.577-.588-2.044-.392-.485-.99-.728-1.792-.728-.653 0-1.148.205-1.484.616-.336.41-.504.915-.504 1.512 0 .728.233 1.344.7 1.848.485.485 1.307.952 2.464 1.4.97.373 1.727.775 2.268 1.204.541.41.924.868 1.148 1.372.224.485.336 1.055.336 1.708 0 1.325-.41 2.399-1.232 3.22-.821.803-2.072 1.204-3.752 1.204Zm12.22.028c-1.25 0-2.287-.308-3.108-.924-.802-.635-1.4-1.493-1.792-2.576-.373-1.083-.56-2.333-.56-3.752 0-1.344.196-2.576.588-3.696.41-1.139 1.017-2.044 1.82-2.716.822-.672 1.839-1.008 3.052-1.008 1.662 0 2.847.56 3.556 1.68.728 1.101 1.092 2.679 1.092 4.732h-8.204l.028-.56h5.208c-.037-1.381-.121-2.455-.252-3.22-.112-.765-.299-1.307-.56-1.624-.261-.336-.616-.504-1.064-.504-.43 0-.803.177-1.12.532-.317.355-.579.952-.784 1.792-.186.821-.29 1.913-.308 3.276l-.056.168v.532c0 1.755.243 3.108.728 4.06.486.933 1.372 1.4 2.66 1.4.747 0 1.4-.159 1.96-.476.579-.336 1.064-.887 1.456-1.652l.252.056c-.205 1.493-.71 2.613-1.512 3.36-.784.747-1.81 1.12-3.08 1.12Zm17.665 0c-1.661 0-2.996-.597-4.004-1.792-.99-1.213-1.484-3.043-1.484-5.488 0-1.344.205-2.576.616-3.696.41-1.12 1.036-2.016 1.876-2.688.84-.672 1.867-1.008 3.08-1.008 1.512 0 2.604.308 3.276.924.691.597 1.036 1.363 1.036 2.296 0 .168-.019.401-.056.7l-2.436.812.056-1.12c0-1.195-.196-2.007-.588-2.436-.392-.448-.896-.672-1.512-.672-.822 0-1.419.476-1.792 1.428-.374.933-.56 2.212-.56 3.836 0 2.352.298 4.023.896 5.012.597.99 1.493 1.484 2.688 1.484.803 0 1.475-.168 2.016-.504.56-.336 1.008-.905 1.344-1.708l.252.028c-.168 1.55-.672 2.707-1.512 3.472-.821.747-1.886 1.12-3.192 1.12Zm12.009 0c-2.072 0-3.547-.672-4.424-2.016-.859-1.344-1.288-3.07-1.288-5.18 0-2.184.457-3.976 1.372-5.376.933-1.4 2.38-2.1 4.34-2.1 2.053 0 3.519.681 4.396 2.044.877 1.363 1.316 3.099 1.316 5.208 0 2.165-.467 3.948-1.4 5.348-.915 1.381-2.352 2.072-4.312 2.072Zm.056-.644c.579 0 1.055-.196 1.428-.588.392-.392.691-1.073.896-2.044.224-.99.336-2.333.336-4.032 0-2.203-.233-3.873-.7-5.012-.467-1.139-1.157-1.708-2.072-1.708-.579 0-1.064.205-1.456.616-.373.392-.672 1.083-.896 2.072-.205.99-.308 2.333-.308 4.032 0 2.203.233 3.864.7 4.984.467 1.12 1.157 1.68 2.072 1.68Zm7.184.252v-.28c.374-.075.663-.233.868-.476.224-.243.383-.597.476-1.064.112-.485.168-1.12.168-1.904v-5.88c0-.877-.046-1.55-.14-2.016-.074-.467-.224-.803-.448-1.008-.205-.224-.513-.364-.924-.42v-.28c.579 0 1.279-.103 2.1-.308.822-.205 1.466-.42 1.932-.644h.168l-.056 1.68.112.336v8.54c0 .859.028 1.512.084 1.96.056.448.168.793.336 1.036.168.224.43.373.784.448V54h-5.46Zm7.028 0v-.28c.355-.075.616-.224.784-.448.168-.243.28-.588.336-1.036.056-.448.084-1.101.084-1.96v-6.552c0-.933-.149-1.559-.448-1.876-.28-.317-.793-.476-1.54-.476-.784 0-1.558.252-2.324.756l-.112-.56a9.713 9.713 0 0 1 2.268-1.344c.822-.336 1.568-.504 2.24-.504.896 0 1.559.261 1.988.784.448.523.672 1.39.672 2.604v7.168c0 .784.047 1.419.14 1.904.112.467.271.821.476 1.064.224.243.523.401.896.476V54h-5.46Zm6.452-13.02a14.282 14.282 0 0 0 3.668-4.312h.28v3.612h3.612v.336l-.84.644h-2.772v9.436c0 .747.112 1.279.336 1.596.224.299.607.448 1.148.448.392 0 .738-.103 1.036-.308.299-.205.542-.541.728-1.008l.224.056c-.112 1.008-.457 1.745-1.036 2.212-.578.467-1.269.7-2.072.7-1.026 0-1.801-.28-2.324-.84-.522-.579-.784-1.493-.784-2.744V41.26h-1.204v-.28Zm13.864 13.412c-1.251 0-2.287-.308-3.108-.924-.803-.635-1.4-1.493-1.792-2.576-.373-1.083-.56-2.333-.56-3.752 0-1.344.196-2.576.588-3.696.411-1.139 1.017-2.044 1.82-2.716.821-.672 1.839-1.008 3.052-1.008 1.661 0 2.847.56 3.556 1.68.728 1.101 1.092 2.679 1.092 4.732h-8.204l.028-.56h5.208c-.037-1.381-.121-2.455-.252-3.22-.112-.765-.299-1.307-.56-1.624-.261-.336-.616-.504-1.064-.504-.429 0-.803.177-1.12.532-.317.355-.579.952-.784 1.792-.187.821-.289 1.913-.308 3.276l-.056.168v.532c0 1.755.243 3.108.728 4.06.485.933 1.372 1.4 2.66 1.4.747 0 1.4-.159 1.96-.476.579-.336 1.064-.887 1.456-1.652l.252.056c-.205 1.493-.709 2.613-1.512 3.36-.784.747-1.811 1.12-3.08 1.12Zm6.153-.392v-.28c.373-.075.662-.233.868-.476.224-.243.382-.597.476-1.064.112-.485.168-1.12.168-1.904v-5.88c0-.877-.047-1.55-.14-2.016-.075-.467-.224-.803-.448-1.008-.206-.224-.514-.364-.924-.42v-.28c.578 0 1.278-.103 2.1-.308.821-.205 1.465-.42 1.932-.644h.168l-.056 1.68.112.336v8.54c0 .859.028 1.512.084 1.96.056.448.168.793.336 1.036.168.224.429.373.784.448V54h-5.46Zm7.028 0v-.28c.354-.075.616-.224.784-.448.168-.243.28-.588.336-1.036.056-.448.084-1.101.084-1.96v-6.552c0-.933-.15-1.559-.448-1.876-.28-.317-.794-.476-1.54-.476-.784 0-1.559.252-2.324.756l-.112-.56a9.672 9.672 0 0 1 2.268-1.344c.821-.336 1.568-.504 2.24-.504.896 0 1.558.261 1.988.784.448.523.672 1.39.672 2.604v7.168c0 .784.046 1.419.14 1.904.112.467.27.821.476 1.064.224.243.522.401.896.476V54h-5.46Zm6.451-13.02a14.282 14.282 0 0 0 3.668-4.312h.28v3.612h3.612v.336l-.84.644h-2.772v9.436c0 .747.112 1.279.336 1.596.224.299.607.448 1.148.448.392 0 .738-.103 1.036-.308.299-.205.542-.541.728-1.008l.224.056c-.112 1.008-.457 1.745-1.036 2.212-.578.467-1.269.7-2.072.7-1.026 0-1.801-.28-2.324-.84-.522-.579-.784-1.493-.784-2.744V41.26h-1.204v-.28Zm13.019 13.384c-1.326 0-2.39-.27-3.192-.812-.803-.541-1.204-1.279-1.204-2.212 0-.355.065-.728.196-1.12l2.212-.756a5.59 5.59 0 0 0-.196 1.4c0 .915.214 1.633.644 2.156.429.523 1.045.784 1.848.784.672 0 1.232-.187 1.68-.56.448-.373.672-.99.672-1.848 0-.765-.206-1.372-.616-1.82-.392-.448-1.12-.868-2.184-1.26-1.494-.541-2.567-1.167-3.22-1.876-.654-.71-.98-1.577-.98-2.604 0-.765.177-1.456.532-2.072.373-.635.914-1.13 1.624-1.484.709-.373 1.577-.56 2.604-.56 1.194 0 2.174.233 2.94.7.784.448 1.176 1.083 1.176 1.904 0 .355-.066.7-.196 1.036l-2.044.672c.093-.355.14-.681.14-.98 0-.896-.196-1.577-.588-2.044-.392-.485-.99-.728-1.792-.728-.654 0-1.148.205-1.484.616-.336.41-.504.915-.504 1.512 0 .728.233 1.344.7 1.848.485.485 1.306.952 2.464 1.4.97.373 1.726.775 2.268 1.204.541.41.924.868 1.148 1.372.224.485.336 1.055.336 1.708 0 1.325-.411 2.399-1.232 3.22-.822.803-2.072 1.204-3.752 1.204Zm7.572 1.68c.392-.224.663-.43.812-.616a.793.793 0 0 0 .224-.532c0-.15-.037-.28-.112-.392a1.342 1.342 0 0 0-.336-.28 3.188 3.188 0 0 1-.896-.7c-.205-.261-.308-.663-.308-1.204 0-.56.177-1.017.532-1.372.355-.373.821-.56 1.4-.56.653 0 1.148.205 1.484.616.336.392.504.933.504 1.624 0 .915-.317 1.727-.952 2.436-.635.71-1.4 1.167-2.296 1.372l-.14-.336.084-.056ZM10.632 88.392c-.71 0-1.195-.215-1.456-.644-.243-.448-.401-.97-.476-1.568l-.056-.28-.14-.056V78.9c0-1.213-.196-2.081-.588-2.604-.392-.523-1.083-.784-2.072-.784-.672 0-1.279.13-1.82.392-.523.243-1.027.625-1.512 1.148l-.28-.196c.093-.504.364-.999.812-1.484a5.032 5.032 0 0 1 1.68-1.176 4.863 4.863 0 0 1 2.1-.476c1.437 0 2.53.364 3.276 1.092.765.71 1.148 1.839 1.148 3.388v7.028c0 .41.065.737.196.98.13.243.401.364.812.364.187 0 .317-.01.392-.028l.084.112c-.112.597-.355 1.036-.728 1.316-.355.28-.812.42-1.372.42Zm-5.46 0c-1.064 0-1.885-.364-2.464-1.092-.579-.728-.868-1.633-.868-2.716 0-1.027.196-1.867.588-2.52.41-.653 1.101-1.195 2.072-1.624.99-.448 2.38-.84 4.172-1.176v.448c-1.064.243-1.876.55-2.436.924-.541.373-.915.83-1.12 1.372-.187.541-.28 1.232-.28 2.072 0 .99.177 1.745.532 2.268.373.504.812.756 1.316.756.579 0 1.027-.196 1.344-.588.317-.392.476-1.055.476-1.988l.392 1.26c-.336.952-.85 1.624-1.54 2.016a4.26 4.26 0 0 1-2.184.588ZM13.729 88v-.28c.373-.075.662-.233.868-.476.224-.243.382-.597.476-1.064.112-.485.168-1.12.168-1.904v-5.88c0-.877-.047-1.55-.14-2.016-.075-.467-.224-.803-.448-1.008-.206-.224-.514-.364-.924-.42v-.28c.578 0 1.278-.103 2.1-.308.821-.205 1.465-.42 1.932-.644h.168l-.056 1.68.112.336v8.54c0 .859.028 1.512.084 1.96.056.448.168.793.336 1.036.168.224.429.373.784.448V88h-5.46Zm7.028 0v-.28c.354-.075.616-.224.784-.448.168-.243.28-.588.336-1.036.056-.448.084-1.101.084-1.96v-6.552c0-.933-.15-1.559-.448-1.876-.28-.317-.794-.476-1.54-.476-.784 0-1.559.252-2.324.756l-.112-.56a9.688 9.688 0 0 1 2.268-1.344c.821-.336 1.568-.504 2.24-.504.896 0 1.558.261 1.988.784.448.523.672 1.39.672 2.604v7.168c0 .784.046 1.419.14 1.904.112.467.27.821.476 1.064.224.243.522.401.896.476V88h-5.46Zm11.267.392c-1.38 0-2.464-.541-3.248-1.624-.765-1.083-1.148-2.623-1.148-4.62 0-1.643.187-3.09.56-4.34.392-1.27.99-2.268 1.792-2.996.822-.728 1.848-1.092 3.08-1.092.523 0 1.036.121 1.54.364s.85.616 1.036 1.12l-.196.392c-.186-.373-.504-.653-.952-.84-.429-.205-.82-.308-1.176-.308-.989 0-1.689.55-2.1 1.652-.392 1.101-.588 2.781-.588 5.04 0 1.96.206 3.444.616 4.452.411 1.008 1.102 1.512 2.072 1.512.504 0 .943-.177 1.316-.532.392-.355.588-.905.588-1.652l.224 1.232c-.28.728-.728 1.288-1.344 1.68-.597.373-1.288.56-2.072.56Zm3.556 0-.28-2.408-.084-.056v-13.44c0-.877-.046-1.521-.14-1.932-.074-.43-.214-.728-.42-.896-.205-.168-.522-.28-.952-.336v-.28c.616 0 1.307-.084 2.072-.252.784-.168 1.466-.383 2.044-.644h.14V83.94c0 .896.038 1.577.112 2.044.094.448.243.784.448 1.008.206.205.523.336.952.392v.28c-.616 0-1.278.075-1.988.224-.709.13-1.26.299-1.652.504h-.252Zm15.23 0c-1.382 0-2.464-.541-3.248-1.624-.766-1.083-1.148-2.623-1.148-4.62 0-1.643.186-3.09.56-4.34.392-1.27.989-2.268 1.792-2.996.82-.728 1.848-1.092 3.08-1.092.522 0 1.036.121 1.54.364s.849.616 1.036 1.12l-.196.392c-.187-.373-.504-.653-.952-.84-.43-.205-.822-.308-1.176-.308-.99 0-1.69.55-2.1 1.652-.392 1.101-.588 2.781-.588 5.04 0 1.96.205 3.444.616 4.452.41 1.008 1.1 1.512 2.072 1.512.504 0 .942-.177 1.316-.532.392-.355.588-.905.588-1.652l.224 1.232c-.28.728-.728 1.288-1.344 1.68-.598.373-1.288.56-2.072.56Zm3.556 0-.28-2.408-.084-.056v-13.44c0-.877-.047-1.521-.14-1.932-.075-.43-.215-.728-.42-.896-.206-.168-.523-.28-.952-.336v-.28c.616 0 1.306-.084 2.072-.252.784-.168 1.465-.383 2.044-.644h.14V83.94c0 .896.037 1.577.112 2.044.093.448.242.784.448 1.008.205.205.522.336.952.392v.28c-.616 0-1.28.075-1.988.224-.71.13-1.26.299-1.652.504h-.252Zm10.605 0c-1.251 0-2.287-.308-3.108-.924-.803-.635-1.4-1.493-1.792-2.576-.374-1.083-.56-2.333-.56-3.752 0-1.344.196-2.576.588-3.696.41-1.139 1.017-2.044 1.82-2.716.82-.672 1.838-1.008 3.052-1.008 1.66 0 2.846.56 3.556 1.68.728 1.101 1.092 2.679 1.092 4.732h-8.204l.028-.56h5.208c-.038-1.381-.122-2.455-.252-3.22-.112-.765-.3-1.307-.56-1.624-.262-.336-.616-.504-1.064-.504-.43 0-.803.177-1.12.532-.318.355-.58.952-.784 1.792-.187.821-.29 1.913-.308 3.276l-.056.168v.532c0 1.755.242 3.108.728 4.06.485.933 1.372 1.4 2.66 1.4.746 0 1.4-.159 1.96-.476.578-.336 1.064-.887 1.456-1.652l.252.056c-.206 1.493-.71 2.613-1.512 3.36-.784.747-1.811 1.12-3.08 1.12ZM70.983 88v-.28c.41-.075.719-.205.924-.392.206-.205.355-.579.448-1.12.093-.56.14-1.41.14-2.548V72.488c0-.877-.047-1.521-.14-1.932-.075-.43-.215-.728-.42-.896-.205-.168-.523-.28-.952-.336v-.28c.616 0 1.307-.084 2.072-.252.784-.168 1.465-.383 2.044-.644h.14V83.66c0 1.139.047 1.988.14 2.548.112.541.27.905.476 1.092.224.187.55.327.98.42V88h-5.852Zm9.64-15.036c-.542 0-1-.177-1.373-.532-.354-.355-.532-.803-.532-1.344 0-.523.178-.961.532-1.316.374-.373.831-.56 1.372-.56.523 0 .971.187 1.344.56.374.355.56.793.56 1.316s-.186.97-.56 1.344c-.354.355-.802.532-1.344.532Zm1.455 10.696c0 1.139.047 1.988.14 2.548.094.541.243.915.448 1.12.206.187.514.317.924.392V88h-5.768v-.28c.411-.075.719-.205.924-.392.206-.205.355-.579.448-1.12.094-.56.14-1.41.14-2.548v-5.264c0-.896-.046-1.568-.14-2.016-.074-.467-.214-.803-.42-1.008-.205-.224-.522-.364-.952-.42v-.28c.579 0 1.288-.103 2.128-.308.84-.205 1.503-.42 1.988-.644h.14v9.94Zm7.593 4.872-2.744-7.784a124.787 124.787 0 0 0-1.456-4.004c-.373-1.027-.644-1.661-.812-1.904-.168-.261-.364-.41-.588-.448v-.28h5.264v.28c-.299 0-.513.056-.644.168-.13.112-.196.308-.196.588 0 .261.065.7.196 1.316.13.597.42 1.745.868 3.444l1.372 5.18-.952 3.444h-.308Zm.392-1.904.56-1.652a35.91 35.91 0 0 0 1.456-4.34c.41-1.493.616-2.772.616-3.836 0-.616-.065-1.12-.196-1.512-.13-.41-.345-.71-.644-.896v-.28h4.032v.28c-.187.037-.383.205-.588.504-.187.28-.457.859-.812 1.736-.355.859-.887 2.23-1.596 4.116l-2.912 7.784.084-1.904Zm11.822 1.764c-1.251 0-2.287-.308-3.108-.924-.803-.635-1.4-1.493-1.792-2.576-.374-1.083-.56-2.333-.56-3.752 0-1.344.196-2.576.588-3.696.41-1.139 1.017-2.044 1.82-2.716.821-.672 1.838-1.008 3.052-1.008 1.661 0 2.846.56 3.556 1.68.728 1.101 1.092 2.679 1.092 4.732h-8.204l.028-.56h5.208c-.038-1.381-.122-2.455-.252-3.22-.112-.765-.299-1.307-.56-1.624-.262-.336-.616-.504-1.064-.504-.43 0-.803.177-1.12.532-.318.355-.579.952-.784 1.792-.187.821-.29 1.913-.308 3.276l-.056.168v.532c0 1.755.242 3.108.728 4.06.485.933 1.372 1.4 2.66 1.4.746 0 1.4-.159 1.96-.476.578-.336 1.064-.887 1.456-1.652l.252.056c-.206 1.493-.71 2.613-1.512 3.36-.784.747-1.811 1.12-3.08 1.12Zm6.152-.392v-.28c.374-.075.672-.233.896-.476.224-.243.383-.597.476-1.064.094-.467.14-1.101.14-1.904v-5.88c0-.896-.046-1.568-.14-2.016-.074-.467-.214-.803-.42-1.008-.205-.224-.522-.364-.952-.42v-.28c.579 0 1.279-.103 2.1-.308.822-.205 1.475-.42 1.96-.644h.14l-.056 2.52.112.336v7.7c0 .84.047 1.484.14 1.932.094.448.262.793.504 1.036.262.243.644.401 1.148.476V88h-6.048Zm3.696-11.564c.392-.616.756-1.101 1.092-1.456a3.626 3.626 0 0 1 1.288-.896c.523-.243 1.176-.364 1.96-.364l-.364 2.688a5.62 5.62 0 0 0-1.148-.448c-.392-.112-.7-.168-.924-.168-.392 0-.69.084-.896.252-.186.15-.308.392-.364.728-.056.317-.084.793-.084 1.428l-.56-1.764Zm10.358-1.456a14.282 14.282 0 0 0 3.668-4.312h.28v3.612h3.612v.336l-.84.644h-2.772v9.436c0 .747.112 1.279.336 1.596.224.299.607.448 1.148.448.392 0 .738-.103 1.036-.308.299-.205.542-.541.728-1.008l.224.056c-.112 1.008-.457 1.745-1.036 2.212-.578.467-1.269.7-2.072.7-1.026 0-1.801-.28-2.324-.84-.522-.579-.784-1.493-.784-2.744V75.26h-1.204v-.28ZM130.21 88v-.28c.41-.075.718-.205.924-.392.205-.205.354-.579.448-1.12.093-.56.14-1.41.14-2.548V72.488c0-.877-.047-1.521-.14-1.932-.075-.43-.215-.728-.42-.896-.206-.168-.523-.28-.952-.336v-.28c.616 0 1.306-.084 2.072-.252.784-.168 1.465-.383 2.044-.644h.14V83.66c0 1.139.046 1.988.14 2.548.093.541.242.915.448 1.12.205.187.513.317.924.392V88h-5.768Zm6.72 0v-.28c.41-.075.718-.205.924-.392.205-.205.354-.579.448-1.12.093-.56.14-1.41.14-2.548v-5.712c0-.952-.15-1.615-.448-1.988-.299-.392-.812-.588-1.54-.588-.411 0-.812.075-1.204.224-.392.13-.766.308-1.12.532l-.112-.56a9.672 9.672 0 0 1 2.268-1.344c.821-.336 1.568-.504 2.24-.504.896 0 1.558.261 1.988.784.448.523.672 1.39.672 2.604v6.552c0 1.139.046 1.988.14 2.548.093.541.242.915.448 1.12.205.187.513.317.924.392V88h-5.768Zm12.587.392c-1.25 0-2.286-.308-3.108-.924-.802-.635-1.4-1.493-1.792-2.576-.373-1.083-.56-2.333-.56-3.752 0-1.344.196-2.576.588-3.696.411-1.139 1.018-2.044 1.82-2.716.822-.672 1.839-1.008 3.052-1.008 1.662 0 2.847.56 3.556 1.68.728 1.101 1.092 2.679 1.092 4.732h-8.204l.028-.56h5.208c-.037-1.381-.121-2.455-.252-3.22-.112-.765-.298-1.307-.56-1.624-.261-.336-.616-.504-1.064-.504-.429 0-.802.177-1.12.532-.317.355-.578.952-.784 1.792-.186.821-.289 1.913-.308 3.276l-.056.168v.532c0 1.755.243 3.108.728 4.06.486.933 1.372 1.4 2.66 1.4.747 0 1.4-.159 1.96-.476.579-.336 1.064-.887 1.456-1.652l.252.056c-.205 1.493-.709 2.613-1.512 3.36-.784.747-1.81 1.12-3.08 1.12Zm19.453-.672c.373-.075.635-.224.784-.448.149-.243.243-.57.28-.98.037-.41.056-1.083.056-2.016v-6.552c0-.915-.14-1.53-.42-1.848-.261-.336-.728-.504-1.4-.504a3.53 3.53 0 0 0-1.176.196c-.373.13-.719.317-1.036.56l-.112-.56c.747-.579 1.475-1.027 2.184-1.344.709-.336 1.391-.504 2.044-.504.877 0 1.531.261 1.96.784.448.523.672 1.39.672 2.604v7.168c0 .784.047 1.419.14 1.904.112.467.28.821.504 1.064.224.243.523.401.896.476V88h-5.376v-.28Zm-13.328 0c.373-.075.672-.233.896-.476.224-.243.383-.597.476-1.064.112-.485.168-1.12.168-1.904v-5.88c0-.877-.047-1.55-.14-2.016-.075-.467-.224-.803-.448-1.008-.205-.224-.523-.364-.952-.42v-.28c.579 0 1.279-.103 2.1-.308.84-.205 1.493-.42 1.96-.644h.14l-.056 1.68.112.336v8.54c0 .933.019 1.605.056 2.016.037.41.131.737.28.98.149.224.411.373.784.448V88h-5.376v-.28Zm6.86 0c.373-.075.635-.224.784-.448.149-.243.243-.57.28-.98.037-.41.056-1.083.056-2.016v-6.552c0-.635-.065-1.12-.196-1.456-.112-.336-.299-.57-.56-.7-.243-.13-.588-.196-1.036-.196-.803 0-1.549.252-2.24.756l-.112-.56c.747-.579 1.475-1.027 2.184-1.344.709-.336 1.391-.504 2.044-.504.896 0 1.559.261 1.988.784.448.523.672 1.39.672 2.604v7.168c0 .915.019 1.587.056 2.016.037.41.131.737.28.98.168.224.439.373.812.448V88h-5.012v-.28ZM4.388 106.964c-.541 0-.999-.177-1.372-.532-.355-.355-.532-.803-.532-1.344 0-.523.177-.961.532-1.316.373-.373.83-.56 1.372-.56.523 0 .97.187 1.344.56.373.355.56.793.56 1.316s-.187.971-.56 1.344c-.355.355-.803.532-1.344.532Zm1.456 10.696c0 1.139.047 1.988.14 2.548.093.541.243.915.448 1.12.205.187.513.317.924.392v.28H1.588v-.28c.41-.075.719-.205.924-.392.205-.205.355-.579.448-1.12.093-.56.14-1.409.14-2.548v-5.264c0-.896-.047-1.568-.14-2.016-.075-.467-.215-.803-.42-1.008-.205-.224-.523-.364-.952-.42v-.28c.579 0 1.288-.103 2.128-.308.84-.205 1.503-.42 1.988-.644h.14v9.94ZM8.397 122v-.28c.373-.075.662-.233.868-.476.224-.243.382-.597.476-1.064.112-.485.168-1.12.168-1.904v-5.88c0-.877-.047-1.549-.14-2.016-.075-.467-.224-.803-.448-1.008-.206-.224-.514-.364-.924-.42v-.28c.578 0 1.278-.103 2.1-.308.82-.205 1.465-.42 1.932-.644h.168l-.056 1.68.112.336v8.54c0 .859.028 1.512.084 1.96.056.448.168.793.336 1.036.168.224.429.373.784.448v.28h-5.46Zm7.028 0v-.28c.354-.075.616-.224.784-.448.168-.243.28-.588.336-1.036.056-.448.084-1.101.084-1.96v-6.552c0-.933-.15-1.559-.448-1.876-.28-.317-.794-.476-1.54-.476-.784 0-1.56.252-2.324.756l-.112-.56a9.684 9.684 0 0 1 2.268-1.344c.82-.336 1.568-.504 2.24-.504.896 0 1.558.261 1.988.784.448.523.672 1.391.672 2.604v7.168c0 .784.046 1.419.14 1.904.112.467.27.821.476 1.064.224.243.522.401.896.476v.28h-5.46Zm21.184.392c-.71 0-1.195-.215-1.456-.644-.243-.448-.402-.971-.476-1.568-.02-.093-.038-.187-.056-.28l-.14-.056V112.9c0-1.213-.196-2.081-.588-2.604-.392-.523-1.083-.784-2.072-.784-.672 0-1.28.131-1.82.392-.523.243-1.027.625-1.512 1.148l-.28-.196c.093-.504.364-.999.812-1.484a5.04 5.04 0 0 1 1.68-1.176 4.867 4.867 0 0 1 2.1-.476c1.437 0 2.529.364 3.276 1.092.765.709 1.148 1.839 1.148 3.388v7.028c0 .411.065.737.196.98.13.243.4.364.812.364.186 0 .317-.009.392-.028l.084.112c-.112.597-.355 1.036-.728 1.316-.355.28-.812.42-1.372.42Zm-5.46 0c-1.064 0-1.886-.364-2.464-1.092-.58-.728-.868-1.633-.868-2.716 0-1.027.196-1.867.588-2.52.41-.653 1.1-1.195 2.072-1.624.989-.448 2.38-.84 4.172-1.176v.448c-1.064.243-1.876.551-2.436.924-.542.373-.915.831-1.12 1.372-.187.541-.28 1.232-.28 2.072 0 .989.177 1.745.532 2.268.373.504.812.756 1.316.756.578 0 1.026-.196 1.344-.588.317-.392.476-1.055.476-1.988l.392 1.26c-.336.952-.85 1.624-1.54 2.016a4.26 4.26 0 0 1-2.184.588Zm8.556-.392v-.28c.373-.075.663-.233.868-.476.224-.243.383-.597.476-1.064.112-.485.168-1.12.168-1.904v-5.88c0-.877-.047-1.549-.14-2.016-.075-.467-.224-.803-.448-1.008-.205-.224-.513-.364-.924-.42v-.28c.579 0 1.279-.103 2.1-.308.822-.205 1.465-.42 1.932-.644h.168l-.056 1.68.112.336v8.54c0 .859.028 1.512.084 1.96.056.448.168.793.336 1.036.168.224.43.373.784.448v.28h-5.46Zm7.028 0v-.28c.355-.075.616-.224.784-.448.168-.243.28-.588.336-1.036.056-.448.084-1.101.084-1.96v-6.552c0-.933-.15-1.559-.448-1.876-.28-.317-.793-.476-1.54-.476-.784 0-1.558.252-2.324.756l-.112-.56a9.684 9.684 0 0 1 2.268-1.344c.822-.336 1.568-.504 2.24-.504.896 0 1.559.261 1.988.784.448.523.672 1.391.672 2.604v7.168c0 .784.047 1.419.14 1.904.112.467.27.821.476 1.064.224.243.523.401.896.476v.28h-5.46Zm17.964.392c-1.25 0-2.287-.308-3.108-.924-.803-.635-1.4-1.493-1.792-2.576-.373-1.083-.56-2.333-.56-3.752 0-1.344.196-2.576.588-3.696.41-1.139 1.017-2.044 1.82-2.716.822-.672 1.839-1.008 3.052-1.008 1.662 0 2.847.56 3.556 1.68.728 1.101 1.092 2.679 1.092 4.732h-8.204l.028-.56h5.208c-.037-1.381-.121-2.455-.252-3.22-.112-.765-.299-1.307-.56-1.624-.261-.336-.616-.504-1.064-.504-.43 0-.803.177-1.12.532-.317.355-.578.952-.784 1.792-.187.821-.29 1.913-.308 3.276l-.056.168v.532c0 1.755.243 3.108.728 4.06.486.933 1.372 1.4 2.66 1.4.747 0 1.4-.159 1.96-.476.579-.336 1.064-.887 1.456-1.652l.252.056c-.205 1.493-.71 2.613-1.512 3.36-.784.747-1.81 1.12-3.08 1.12Zm10.974.14-2.744-7.784a125.056 125.056 0 0 0-1.456-4.004c-.373-1.027-.644-1.661-.812-1.904-.168-.261-.364-.411-.588-.448v-.28h5.264v.28c-.299 0-.513.056-.644.168-.13.112-.196.308-.196.588 0 .261.065.7.196 1.316.13.597.42 1.745.868 3.444l1.372 5.18-.952 3.444h-.308Zm.392-1.904.56-1.652a35.91 35.91 0 0 0 1.456-4.34c.41-1.493.616-2.772.616-3.836 0-.616-.065-1.12-.196-1.512-.13-.411-.345-.709-.644-.896v-.28h4.032v.28c-.187.037-.383.205-.588.504-.187.28-.457.859-.812 1.736-.355.859-.887 2.231-1.596 4.116l-2.912 7.784.084-1.904Zm11.822 1.764c-1.251 0-2.287-.308-3.108-.924-.803-.635-1.4-1.493-1.792-2.576-.374-1.083-.56-2.333-.56-3.752 0-1.344.196-2.576.588-3.696.41-1.139 1.017-2.044 1.82-2.716.821-.672 1.838-1.008 3.052-1.008 1.661 0 2.846.56 3.556 1.68.728 1.101 1.092 2.679 1.092 4.732h-8.204l.028-.56h5.208c-.038-1.381-.122-2.455-.252-3.22-.112-.765-.299-1.307-.56-1.624-.262-.336-.616-.504-1.064-.504-.43 0-.803.177-1.12.532-.318.355-.579.952-.784 1.792-.187.821-.29 1.913-.308 3.276l-.056.168v.532c0 1.755.242 3.108.728 4.06.485.933 1.372 1.4 2.66 1.4.746 0 1.4-.159 1.96-.476.578-.336 1.064-.887 1.456-1.652l.252.056c-.206 1.493-.71 2.613-1.512 3.36-.784.747-1.811 1.12-3.08 1.12Zm6.152-.392v-.28c.374-.075.663-.233.868-.476.224-.243.383-.597.476-1.064.112-.485.168-1.12.168-1.904v-5.88c0-.877-.046-1.549-.14-2.016-.074-.467-.224-.803-.448-1.008-.205-.224-.513-.364-.924-.42v-.28c.579 0 1.279-.103 2.1-.308.822-.205 1.466-.42 1.932-.644h.168l-.056 1.68.112.336v8.54c0 .859.028 1.512.084 1.96.056.448.168.793.336 1.036.168.224.43.373.784.448v.28h-5.46Zm7.028 0v-.28c.355-.075.616-.224.784-.448.168-.243.28-.588.336-1.036.056-.448.084-1.101.084-1.96v-6.552c0-.933-.149-1.559-.448-1.876-.28-.317-.793-.476-1.54-.476-.784 0-1.558.252-2.324.756l-.112-.56a9.691 9.691 0 0 1 2.268-1.344c.822-.336 1.568-.504 2.24-.504.896 0 1.559.261 1.988.784.448.523.672 1.391.672 2.604v7.168c0 .784.047 1.419.14 1.904.112.467.271.821.476 1.064.224.243.523.401.896.476v.28h-5.46Zm17.74.392c-.429 0-.812-.056-1.148-.168a8.672 8.672 0 0 1-1.092-.392c-.485-.205-.83-.308-1.036-.308-.41 0-.765.177-1.064.532h-.224v-15.568c0-.877-.046-1.521-.14-1.932-.074-.429-.214-.728-.42-.896-.205-.168-.522-.28-.952-.336v-.28c.616 0 1.307-.084 2.072-.252.784-.168 1.466-.383 2.044-.644h.14v16.408c0 1.157.159 1.96.476 2.408.336.429.822.644 1.456.644.486 0 .924-.215 1.316-.644.392-.429.71-1.129.952-2.1.243-.989.364-2.277.364-3.864 0-1.661-.102-2.949-.308-3.864-.186-.933-.466-1.568-.84-1.904-.354-.355-.802-.532-1.344-.532-.41 0-.812.103-1.204.308a2.699 2.699 0 0 0-.952.728l-.028-.672a4.405 4.405 0 0 1 1.4-.98 4.19 4.19 0 0 1 1.68-.364c1.624 0 2.8.588 3.528 1.764.747 1.157 1.12 2.772 1.12 4.844 0 2.333-.476 4.265-1.428 5.796-.952 1.512-2.408 2.268-4.368 2.268Zm13.185 0c-1.251 0-2.287-.308-3.108-.924-.803-.635-1.4-1.493-1.792-2.576-.373-1.083-.56-2.333-.56-3.752 0-1.344.196-2.576.588-3.696.411-1.139 1.017-2.044 1.82-2.716.821-.672 1.839-1.008 3.052-1.008 1.661 0 2.847.56 3.556 1.68.728 1.101 1.092 2.679 1.092 4.732h-8.204l.028-.56h5.208c-.037-1.381-.121-2.455-.252-3.22-.112-.765-.299-1.307-.56-1.624-.261-.336-.616-.504-1.064-.504-.429 0-.803.177-1.12.532-.317.355-.579.952-.784 1.792-.187.821-.289 1.913-.308 3.276l-.056.168v.532c0 1.755.243 3.108.728 4.06.485.933 1.372 1.4 2.66 1.4.747 0 1.4-.159 1.96-.476.579-.336 1.064-.887 1.456-1.652l.252.056c-.205 1.493-.709 2.613-1.512 3.36-.784.747-1.811 1.12-3.08 1.12Zm6.125-13.412a14.3 14.3 0 0 0 3.668-4.312h.28v3.612h3.612v.336l-.84.644h-2.772v9.436c0 .747.112 1.279.336 1.596.224.299.606.448 1.148.448.392 0 .737-.103 1.036-.308.298-.205.541-.541.728-1.008l.224.056c-.112 1.008-.458 1.745-1.036 2.212-.579.467-1.27.7-2.072.7-1.027 0-1.802-.28-2.324-.84-.523-.579-.784-1.493-.784-2.744v-9.548h-1.204v-.28Zm8.23 0a14.286 14.286 0 0 0 3.668-4.312h.28v3.612h3.612v.336l-.84.644h-2.772v9.436c0 .747.112 1.279.336 1.596.224.299.607.448 1.148.448.392 0 .737-.103 1.036-.308.299-.205.541-.541.728-1.008l.224.056c-.112 1.008-.457 1.745-1.036 2.212-.579.467-1.269.7-2.072.7-1.027 0-1.801-.28-2.324-.84-.523-.579-.784-1.493-.784-2.744v-9.548h-1.204v-.28Zm13.864 13.412c-1.251 0-2.287-.308-3.108-.924-.803-.635-1.4-1.493-1.792-2.576-.373-1.083-.56-2.333-.56-3.752 0-1.344.196-2.576.588-3.696.411-1.139 1.017-2.044 1.82-2.716.821-.672 1.839-1.008 3.052-1.008 1.661 0 2.847.56 3.556 1.68.728 1.101 1.092 2.679 1.092 4.732h-8.204l.028-.56h5.208c-.037-1.381-.121-2.455-.252-3.22-.112-.765-.299-1.307-.56-1.624-.261-.336-.616-.504-1.064-.504-.429 0-.803.177-1.12.532-.317.355-.579.952-.784 1.792-.187.821-.289 1.913-.308 3.276l-.056.168v.532c0 1.755.243 3.108.728 4.06.485.933 1.372 1.4 2.66 1.4.747 0 1.4-.159 1.96-.476.579-.336 1.064-.887 1.456-1.652l.252.056c-.205 1.493-.709 2.613-1.512 3.36-.784.747-1.811 1.12-3.08 1.12Zm6.152-.392v-.28c.374-.075.672-.233.896-.476.224-.243.383-.597.476-1.064.094-.467.14-1.101.14-1.904v-5.88c0-.896-.046-1.568-.14-2.016-.074-.467-.214-.803-.42-1.008-.205-.224-.522-.364-.952-.42v-.28c.579 0 1.279-.103 2.1-.308.822-.205 1.475-.42 1.96-.644h.14l-.056 2.52.112.336v7.7c0 .84.047 1.484.14 1.932.094.448.262.793.504 1.036.262.243.644.401 1.148.476v.28h-6.048Zm3.696-11.564c.392-.616.756-1.101 1.092-1.456a3.63 3.63 0 0 1 1.288-.896c.523-.243 1.176-.364 1.96-.364l-.364 2.688a5.603 5.603 0 0 0-1.148-.448c-.392-.112-.7-.168-.924-.168-.392 0-.69.084-.896.252-.186.149-.308.392-.364.728-.056.317-.084.793-.084 1.428l-.56-1.764Zm10.358-1.456a14.286 14.286 0 0 0 3.668-4.312h.28v3.612h3.612v.336l-.84.644h-2.772v9.436c0 .747.112 1.279.336 1.596.224.299.607.448 1.148.448.392 0 .738-.103 1.036-.308.299-.205.542-.541.728-1.008l.224.056c-.112 1.008-.457 1.745-1.036 2.212-.578.467-1.269.7-2.072.7-1.026 0-1.801-.28-2.324-.84-.522-.579-.784-1.493-.784-2.744v-9.548h-1.204v-.28Zm8.119 13.02v-.28c.411-.075.719-.205.924-.392.205-.205.355-.579.448-1.12.093-.56.14-1.409.14-2.548v-11.172c0-.877-.047-1.521-.14-1.932-.075-.429-.215-.728-.42-.896-.205-.168-.523-.28-.952-.336v-.28c.616 0 1.307-.084 2.072-.252a10.179 10.179 0 0 0 2.044-.644h.14v15.512c0 1.139.047 1.988.14 2.548.093.541.243.915.448 1.12.205.187.513.317.924.392v.28h-5.768Zm6.72 0v-.28c.411-.075.719-.205.924-.392.205-.205.355-.579.448-1.12.093-.56.14-1.409.14-2.548v-5.712c0-.952-.149-1.615-.448-1.988-.299-.392-.812-.588-1.54-.588-.411 0-.812.075-1.204.224a5.15 5.15 0 0 0-1.12.532l-.112-.56a9.672 9.672 0 0 1 2.268-1.344c.821-.336 1.568-.504 2.24-.504.896 0 1.559.261 1.988.784.448.523.672 1.391.672 2.604v6.552c0 1.139.047 1.988.14 2.548.093.541.243.915.448 1.12.205.187.513.317.924.392v.28h-5.768Zm9.564-15.036c-.542 0-.999-.177-1.372-.532-.355-.355-.532-.803-.532-1.344 0-.523.177-.961.532-1.316.373-.373.83-.56 1.372-.56.522 0 .97.187 1.344.56.373.355.56.793.56 1.316s-.187.971-.56 1.344c-.355.355-.803.532-1.344.532Zm1.456 10.696c0 1.139.046 1.988.14 2.548.093.541.242.915.448 1.12.205.187.513.317.924.392v.28h-5.768v-.28c.41-.075.718-.205.924-.392.205-.205.354-.579.448-1.12.093-.56.14-1.409.14-2.548v-5.264c0-.896-.047-1.568-.14-2.016-.075-.467-.215-.803-.42-1.008-.206-.224-.523-.364-.952-.42v-.28c.578 0 1.288-.103 2.128-.308.84-.205 1.502-.42 1.988-.644h.14v9.94Zm2.552 4.34v-.28c.374-.075.663-.233.868-.476.224-.243.383-.597.476-1.064.112-.485.168-1.12.168-1.904v-5.88c0-.877-.046-1.549-.14-2.016-.074-.467-.224-.803-.448-1.008-.205-.224-.513-.364-.924-.42v-.28c.579 0 1.279-.103 2.1-.308.822-.205 1.466-.42 1.932-.644h.168l-.056 1.68.112.336v8.54c0 .859.028 1.512.084 1.96.056.448.168.793.336 1.036.168.224.43.373.784.448v.28h-5.46Zm7.028 0v-.28c.355-.075.616-.224.784-.448.168-.243.28-.588.336-1.036.056-.448.084-1.101.084-1.96v-6.552c0-.933-.149-1.559-.448-1.876-.28-.317-.793-.476-1.54-.476-.784 0-1.558.252-2.324.756l-.112-.56a9.713 9.713 0 0 1 2.268-1.344c.822-.336 1.568-.504 2.24-.504.896 0 1.559.261 1.988.784.448.523.672 1.391.672 2.604v7.168c0 .784.047 1.419.14 1.904.112.467.271.821.476 1.064.224.243.523.401.896.476v.28h-5.46Zm11.744 5.6c-1.027 0-1.923-.308-2.688-.924-.747-.616-1.241-1.503-1.484-2.66l.224-.112c.485.597 1.055 1.027 1.708 1.288a5.18 5.18 0 0 0 1.932.392c.971 0 1.717-.261 2.24-.784.523-.523.784-1.372.784-2.548v-13.524l1.344-.504c.467-.168.896-.336 1.288-.504l.252.168a29.107 29.107 0 0 0-.112 1.792 91.503 91.503 0 0 0-.028 2.66v8.68c0 2.035-.429 3.64-1.288 4.816-.84 1.176-2.231 1.764-4.172 1.764Zm-.476-5.208c-1.381 0-2.464-.541-3.248-1.624-.765-1.083-1.148-2.623-1.148-4.62 0-1.643.187-3.089.56-4.34.392-1.269.989-2.268 1.792-2.996.821-.728 1.848-1.092 3.08-1.092a3.51 3.51 0 0 1 1.54.364 1.97 1.97 0 0 1 1.036 1.12l-.196.392c-.187-.373-.504-.653-.952-.84-.429-.205-.821-.308-1.176-.308-.989 0-1.689.551-2.1 1.652-.392 1.101-.588 2.781-.588 5.04 0 1.96.205 3.444.616 4.452.411 1.008 1.101 1.512 2.072 1.512.504 0 .943-.177 1.316-.532.392-.355.588-.905.588-1.652l.224 1.232c-.28.728-.728 1.288-1.344 1.68-.597.373-1.288.56-2.072.56Zm10.526-.112c-.522 0-.97-.187-1.344-.56a1.867 1.867 0 0 1-.56-1.372c0-.56.187-1.027.56-1.4.374-.373.85-.56 1.428-.56.56 0 1.027.187 1.4.56.374.373.56.84.56 1.4 0 .541-.186.999-.56 1.372-.373.373-.868.56-1.484.56Z"/></svg>